<svg xmlns="http://www.w3.org/2000/svg" width="1200" height="760">
<rect x="0" y="0" width="1200" height="760" fill="#f7f8fb" />
<text x="110" y="60" font-family="Arial" font-size="28" font-weight="bold">Reward Curve for REINFORCE_AGENT (Reward Shaping + Self-Play)</text>
<text x="110" y="92" font-family="Arial" font-size="15" fill="#444">Metric: policy_reward_mean/default</text>
<rect x="110" y="120" width="980" height="470" fill="white" stroke="#cfcfcf" />
<line x1="110.0" y1="120" x2="110.0" y2="590" stroke="#efefef" stroke-width="1" />
<text x="110.0" y="614" text-anchor="middle" font-family="Arial" font-size="12">0M</text>
<line x1="223.7" y1="120" x2="223.7" y2="590" stroke="#efefef" stroke-width="1" />
<text x="223.7" y="614" text-anchor="middle" font-family="Arial" font-size="12">0.5M</text>
<line x1="337.5" y1="120" x2="337.5" y2="590" stroke="#efefef" stroke-width="1" />
<text x="337.5" y="614" text-anchor="middle" font-family="Arial" font-size="12">1M</text>
<line x1="565.0" y1="120" x2="565.0" y2="590" stroke="#efefef" stroke-width="1" />
<text x="565.0" y="614" text-anchor="middle" font-family="Arial" font-size="12">2M</text>
<line x1="792.5" y1="120" x2="792.5" y2="590" stroke="#efefef" stroke-width="1" />
<text x="792.5" y="614" text-anchor="middle" font-family="Arial" font-size="12">3M</text>
<line x1="1019.9" y1="120" x2="1019.9" y2="590" stroke="#efefef" stroke-width="1" />
<text x="1019.9" y="614" text-anchor="middle" font-family="Arial" font-size="12">4M</text>
<line x1="1088.2" y1="120" x2="1088.2" y2="590" stroke="#efefef" stroke-width="1" />
<text x="1088.2" y="614" text-anchor="middle" font-family="Arial" font-size="12">4.3M</text>
<line x1="110" y1="588.6" x2="1090" y2="588.6" stroke="#d6d6d6" stroke-width="1" />
<text x="100" y="592.6" text-anchor="end" font-family="Arial" font-size="12">0.04</text>
<line x1="110" y1="510.8" x2="1090" y2="510.8" stroke="#d6d6d6" stroke-width="1" />
<text x="100" y="514.8" text-anchor="end" font-family="Arial" font-size="12">0.21</text>
<line x1="110" y1="433.1" x2="1090" y2="433.1" stroke="#d6d6d6" stroke-width="1" />
<text x="100" y="437.1" text-anchor="end" font-family="Arial" font-size="12">0.38</text>
<line x1="110" y1="355.4" x2="1090" y2="355.4" stroke="#d6d6d6" stroke-width="1" />
<text x="100" y="359.4" text-anchor="end" font-family="Arial" font-size="12">0.55</text>
<line x1="110" y1="277.7" x2="1090" y2="277.7" stroke="#d6d6d6" stroke-width="1" />
<text x="100" y="281.7" text-anchor="end" font-family="Arial" font-size="12">0.72</text>
<line x1="110" y1="200.0" x2="1090" y2="200.0" stroke="#d6d6d6" stroke-width="1" />
<text x="100" y="204.0" text-anchor="end" font-family="Arial" font-size="12">0.89</text>
<line x1="110" y1="117.8" x2="1090" y2="117.8" stroke="#d6d6d6" stroke-width="1" />
<text x="100" y="121.8" text-anchor="end" font-family="Arial" font-size="12">1.07</text>
<polyline fill="none" stroke="#9fcdb5" stroke-width="1.5" opacity="0.9" points="110.91,576.29 111.82,156.21 112.73,302.86 113.64,213.84 114.55,222.36 115.46,232.21 116.37,205.03 117.28,185.55 118.19,175.74 119.10,149.53 120.01,146.01 120.92,133.71 121.83,157.34 122.74,146.89 123.65,151.23 124.56,144.52 125.47,149.25 126.38,154.22 127.29,162.03 128.20,164.26 129.11,164.72 130.02,158.50 130.93,159.49 131.84,189.94 132.75,207.76 133.66,225.46 134.57,227.50 135.48,224.58 136.39,228.03 137.30,236.78 138.21,253.04 139.12,268.23 140.03,263.39 140.94,267.51 141.85,254.45 142.76,252.40 143.67,254.67 144.58,281.78 145.49,329.21 146.40,321.81 147.31,298.50 148.22,301.15 149.13,312.86 150.04,314.68 150.95,330.93 151.86,331.99 152.77,332.86 153.68,317.59 154.59,293.98 155.50,307.35 156.41,288.33 157.32,311.03 158.23,308.62 159.14,308.26 160.05,323.75 160.96,375.88 161.87,388.49 162.78,394.27 163.69,397.72 164.60,390.07 165.51,396.06 166.42,404.76 167.33,411.34 168.24,429.39 169.15,422.76 170.06,414.39 170.97,396.31 171.88,396.08 172.79,361.67 173.70,359.90 174.61,393.95 175.52,385.97 176.43,429.31 177.34,414.92 178.25,412.84 179.16,395.29 180.06,411.58 180.97,388.99 181.88,390.95 182.79,403.78 183.70,414.91 184.61,411.20 185.52,406.24 186.43,385.83 187.34,389.08 188.25,404.70 189.16,410.45 190.07,418.62 190.98,425.02 191.89,414.11 192.80,434.36 193.71,443.67 194.62,468.13 195.53,457.28 196.44,440.88 197.35,463.71 198.26,459.42 199.17,447.24 200.08,420.13 200.99,406.90 201.90,420.94 202.81,434.28 203.72,427.38 204.63,413.09 205.54,395.90 206.45,406.34 207.36,414.04 208.27,435.81 209.18,424.80 210.09,423.82 211.00,433.80 211.91,423.67 212.82,419.89 213.73,415.00 214.64,440.00 215.55,457.74 216.46,477.05 217.37,455.42 218.28,409.54 219.19,433.06 220.10,437.37 221.01,429.87 221.92,405.82 222.83,408.85 223.74,428.76 224.65,439.97 225.56,419.70 226.47,396.37 227.38,414.62 228.29,447.04 229.20,424.93 230.11,428.19 231.02,390.42 231.93,406.87 232.84,395.99 233.75,446.03 234.66,450.34 235.57,448.14 236.48,438.67 237.39,418.13 238.30,387.24 239.21,416.00 240.12,446.79 241.03,460.32 241.94,453.67 242.85,414.07 243.76,421.91 244.67,421.60 245.58,439.95 246.49,442.20 247.40,434.51 248.31,410.79 249.22,397.93 250.13,416.27 251.04,432.56 251.95,425.21 252.86,430.58 253.77,424.72 254.68,423.51 255.59,395.65 256.50,410.19 257.41,419.67 258.32,420.99 259.23,466.44 260.14,476.03 261.05,455.00 261.96,425.72 262.87,427.50 263.78,421.63 264.69,409.44 265.60,432.82 266.51,433.15 267.42,446.72 268.33,463.30 269.24,446.32 270.15,430.72 271.06,421.48 271.97,417.13 272.88,398.61 273.79,393.63 274.70,439.94 275.61,463.95 276.52,454.08 277.43,438.13 278.34,418.50 279.25,440.41 280.16,439.80 281.07,419.54 281.98,421.07 282.89,427.61 283.80,441.82 284.71,431.92 285.62,427.39 286.53,426.44 287.44,427.49 288.35,461.30 289.26,439.38 290.17,441.80 291.08,429.96 291.99,447.49 292.90,437.38 293.81,449.37 294.72,447.75 295.63,433.91 296.54,441.41 297.45,439.57 298.36,450.44 299.27,453.10 300.18,453.07 301.09,449.26 302.00,431.63 302.91,423.59 303.82,427.65 304.73,437.47 305.64,439.32 306.55,431.71 307.46,428.11 308.37,428.80 309.28,434.57 310.19,404.18 311.10,399.32 312.01,402.08 312.92,412.47 313.83,438.93 314.74,418.16 315.65,432.72 316.56,426.84 317.47,437.00 318.38,448.92 319.29,451.98 320.19,422.16 321.10,407.81 322.01,384.08 322.92,387.16 323.83,411.82 324.74,412.98 325.65,421.21 326.56,435.22 327.47,436.07 328.38,450.76 329.29,441.03 330.20,417.82 331.11,414.80 332.02,442.54 332.93,461.22 333.84,434.43 334.75,446.57 335.66,439.24 336.57,405.43 337.48,419.97 338.39,427.40 339.30,447.75 340.21,432.53 341.12,439.30 342.03,438.84 342.94,424.43 343.85,415.28 344.76,434.99 345.67,406.95 346.58,386.25 347.49,392.93 348.40,412.27 349.31,393.21 350.22,411.64 351.13,417.24 352.04,406.52 352.95,398.36 353.86,453.61 354.77,431.19 355.68,422.62 356.59,414.31 357.50,397.30 358.41,411.68 359.32,419.81 360.23,411.74 361.14,425.47 362.05,424.83 362.96,411.39 363.87,423.63 364.78,448.34 365.69,426.17 366.60,392.85 367.51,439.12 368.42,422.37 369.33,408.82 370.24,422.19 371.15,423.64 372.06,428.68 372.97,414.08 373.88,410.51 374.79,411.05 375.70,443.61 376.61,414.61 377.52,402.68 378.43,441.67 379.34,439.04 380.25,431.18 381.16,398.19 382.07,414.41 382.98,438.36 383.89,420.98 384.80,414.87 385.71,403.74 386.62,429.92 387.53,431.72 388.44,426.59 389.35,448.25 390.26,465.33 391.17,424.83 392.08,429.66 392.99,429.79 393.90,421.85 394.81,407.47 395.72,410.27 396.63,428.76 397.54,429.42 398.45,398.10 399.36,395.04 400.27,396.96 401.18,428.12 402.09,459.36 403.00,432.45 403.91,447.58 404.82,435.00 405.73,435.29 406.64,414.91 407.55,417.34 408.46,430.69 409.37,436.34 410.28,422.06 411.19,415.16 412.10,422.44 413.01,428.00 413.92,453.80 414.83,463.21 415.74,444.54 416.65,431.35 417.56,431.91 418.47,402.40 419.38,400.27 420.29,430.66 421.20,455.64 422.11,438.47 423.02,413.02 423.93,442.87 424.84,408.22 425.75,415.98 426.66,421.02 427.57,428.01 428.48,423.41 429.39,441.83 430.30,454.01 431.21,448.53 432.12,437.83 433.03,425.38 433.94,401.67 434.85,409.36 435.76,431.62 436.67,432.79 437.58,392.18 438.49,417.61 439.40,430.29 440.31,422.84 441.22,415.15 442.13,423.53 443.04,431.87 443.95,441.01 444.86,423.97 445.77,421.06 446.68,436.61 447.59,426.15 448.50,407.20 449.41,423.78 450.32,423.30 451.23,427.51 452.14,434.69 453.05,398.67 453.96,387.99 454.87,403.01 455.78,450.67 456.69,448.90 457.60,418.10 458.51,436.66 459.42,399.05 460.32,388.09 461.23,413.33 462.14,414.14 463.05,415.28 463.96,418.33 464.87,428.75 465.78,444.08 466.69,436.96 467.60,396.20 468.51,401.96 469.42,415.61 470.33,431.77 471.24,409.14 472.15,418.92 473.06,422.68 473.97,426.88 474.88,421.06 475.79,417.16 476.70,406.48 477.61,422.61 478.52,428.59 479.43,422.31 480.34,400.47 481.25,411.02 482.16,409.20 483.07,407.75 483.98,386.48 484.89,440.89 485.80,431.01 486.71,435.95 487.62,425.05 488.53,439.83 489.44,417.09 490.35,441.64 491.26,433.22 492.17,412.49 493.08,407.04 493.99,432.62 494.90,422.48 495.81,420.14 496.72,397.97 497.63,411.23 498.54,418.05 499.45,429.90 500.36,413.48 501.27,425.38 502.18,413.78 503.09,410.01 504.00,450.65 504.91,452.85 505.82,425.83 506.73,414.33 507.64,414.25 508.55,426.09 509.46,408.75 510.37,427.21 511.28,443.79 512.19,452.71 513.10,437.74 514.01,421.09 514.92,432.63 515.83,427.88 516.74,433.07 517.65,422.08 518.56,448.99 519.47,438.80 520.38,393.00 521.29,379.00 522.20,445.73 523.11,442.90 524.02,434.49 524.93,446.02 525.84,423.15 526.75,429.31 527.66,408.69 528.57,437.81 529.48,445.20 530.39,416.86 531.30,438.12 532.21,419.36 533.12,422.70 534.03,451.23 534.94,428.49 535.85,424.90 536.76,444.98 537.67,432.07 538.58,424.43 539.49,423.26 540.40,400.78 541.31,406.29 542.22,380.07 543.13,430.78 544.04,452.89 544.95,414.34 545.86,461.98 546.77,424.62 547.68,388.08 548.59,427.16 549.50,430.00 550.41,433.61 551.32,422.70 552.23,420.13 553.14,433.57 554.05,414.49 554.96,422.85 555.87,430.59 556.78,420.19 557.69,414.00 558.60,404.76 559.51,372.51 560.42,405.63 561.33,433.00 562.24,420.66 563.15,410.98 564.06,430.28 564.97,447.44 565.88,420.58 566.79,411.47 567.70,428.53 568.61,404.83 569.52,395.42 570.43,423.86 571.34,449.04 572.25,403.53 573.16,409.29 574.07,405.67 574.98,427.63 575.89,429.77 576.80,421.90 577.71,425.53 578.62,411.58 579.53,430.91 580.44,427.32 581.35,406.55 582.26,421.21 583.17,415.54 584.08,402.13 584.99,413.44 585.90,386.37 586.81,425.14 587.72,435.44 588.63,420.68 589.54,431.79 590.45,419.13 591.36,422.73 592.27,402.02 593.18,396.04 594.09,423.08 595.00,413.56 595.91,424.66 596.82,425.51 597.73,417.81 598.64,393.67 599.55,401.88 600.45,435.18 601.36,426.38 602.27,396.14 603.18,401.67 604.09,388.73 605.00,389.82 605.91,392.63 606.82,413.70 607.73,447.58 608.64,441.38 609.55,438.13 610.46,418.30 611.37,431.84 612.28,430.12 613.19,400.70 614.10,436.48 615.01,429.75 615.92,410.22 616.83,424.52 617.74,396.88 618.65,396.19 619.56,436.17 620.47,443.74 621.38,422.00 622.29,449.45 623.20,403.79 624.11,408.00 625.02,457.30 625.93,438.04 626.84,437.75 627.75,422.75 628.66,420.36 629.57,424.15 630.48,444.20 631.39,418.20 632.30,407.43 633.21,405.56 634.12,441.73 635.03,433.89 635.94,443.36 636.85,431.85 637.76,429.42 638.67,407.56 639.58,429.42 640.49,413.98 641.40,405.80 642.31,396.51 643.22,426.47 644.13,439.75 645.04,427.57 645.95,408.25 646.86,430.93 647.77,414.63 648.68,422.98 649.59,403.72 650.50,412.31 651.41,392.75 652.32,417.64 653.23,439.57 654.14,399.94 655.05,402.96 655.96,430.50 656.87,439.07 657.78,428.30 658.69,395.21 659.60,437.41 660.51,401.00 661.42,429.26 662.33,386.75 663.24,412.93 664.15,438.30 665.06,425.59 665.97,430.54 666.88,424.73 667.79,441.33 668.70,393.90 669.61,413.40 670.52,416.50 671.43,406.55 672.34,415.67 673.25,440.63 674.16,425.11 675.07,418.18 675.98,408.72 676.89,414.53 677.80,407.28 678.71,393.99 679.62,424.79 680.53,428.18 681.44,419.39 682.35,438.64 683.26,411.88 684.17,404.43 685.08,438.81 685.99,435.24 686.90,438.41 687.81,421.74 688.72,392.13 689.63,429.13 690.54,426.32 691.45,420.52 692.36,422.96 693.27,412.28 694.18,386.78 695.09,404.37 696.00,406.70 696.91,421.37 697.82,425.22 698.73,432.30 699.64,383.38 700.55,445.22 701.46,436.18 702.37,439.44 703.28,445.55 704.19,411.05 705.10,400.38 706.01,432.55 706.92,450.67 707.83,452.08 708.74,438.87 709.65,432.36 710.56,416.32 711.47,407.18 712.38,427.83 713.29,438.04 714.20,410.38 715.11,427.24 716.02,422.91 716.93,418.76 717.84,415.55 718.75,425.92 719.66,424.68 720.57,406.85 721.48,426.31 722.39,411.60 723.30,409.49 724.21,434.50 725.12,417.34 726.03,420.19 726.94,404.04 727.85,430.00 728.76,422.68 729.67,387.12 730.58,362.78 731.49,385.66 732.40,378.35 733.31,404.60 734.22,410.39 735.13,414.19 736.04,428.79 736.95,421.31 737.86,418.26 738.77,439.33 739.68,455.00 740.58,404.53 741.49,420.04 742.40,417.02 743.31,439.11 744.22,434.79 745.13,420.66 746.04,408.80 746.95,429.17 747.86,400.53 748.77,439.50 749.68,442.66 750.59,431.33 751.50,416.31 752.41,451.12 753.32,426.98 754.23,402.39 755.14,399.80 756.05,414.92 756.96,425.01 757.87,414.18 758.78,423.56 759.69,428.61 760.60,416.18 761.51,396.99 762.42,411.86 763.33,439.83 764.24,420.63 765.15,419.96 766.06,435.87 766.97,435.66 767.88,409.11 768.79,418.52 769.70,417.60 770.61,459.61 771.52,450.12 772.43,397.83 773.34,394.22 774.25,424.19 775.16,420.04 776.07,424.14 776.98,412.07 777.89,429.73 778.80,427.57 779.71,420.93 780.62,395.81 781.53,436.93 782.44,435.07 783.35,435.04 784.26,422.86 785.17,416.71 786.08,411.59 786.99,443.56 787.90,432.93 788.81,436.65 789.72,457.08 790.63,441.13 791.54,397.14 792.45,376.93 793.36,411.19 794.27,434.78 795.18,429.85 796.09,374.16 797.00,419.70 797.91,447.11 798.82,425.34 799.73,401.68 800.64,420.17 801.55,410.44 802.46,389.54 803.37,381.36 804.28,389.66 805.19,422.00 806.10,427.73 807.01,412.27 807.92,423.31 808.83,412.92 809.74,380.08 810.65,405.33 811.56,408.10 812.47,434.22 813.38,428.72 814.29,418.14 815.20,424.19 816.11,412.68 817.02,395.73 817.93,402.64 818.84,397.64 819.75,404.26 820.66,431.51 821.57,418.66 822.48,379.14 823.39,383.21 824.30,388.84 825.21,422.80 826.12,420.77 827.03,418.22 827.94,396.42 828.85,398.86 829.76,422.64 830.67,443.08 831.58,420.01 832.49,423.26 833.40,449.67 834.31,447.42 835.22,425.97 836.13,397.57 837.04,412.48 837.95,398.12 838.86,400.86 839.77,425.62 840.68,391.04 841.59,391.67 842.50,405.14 843.41,418.58 844.32,401.28 845.23,411.51 846.14,408.01 847.05,433.54 847.96,431.33 848.87,437.45 849.78,398.31 850.69,394.21 851.60,403.41 852.51,391.66 853.42,405.32 854.33,422.21 855.24,435.23 856.15,430.19 857.06,446.63 857.97,388.85 858.88,427.63 859.79,452.45 860.70,423.23 861.61,402.01 862.52,404.87 863.43,423.04 864.34,437.36 865.25,412.67 866.16,406.63 867.07,395.32 867.98,406.81 868.89,412.16 869.80,426.22 870.71,416.62 871.62,408.13 872.53,429.84 873.44,427.98 874.35,412.62 875.26,415.36 876.17,386.67 877.08,405.17 877.99,429.16 878.90,431.30 879.81,400.74 880.71,414.13 881.62,419.13 882.53,433.17 883.44,390.76 884.35,438.71 885.26,449.60 886.17,442.08 887.08,421.68 887.99,428.57 888.90,432.41 889.81,406.54 890.72,422.23 891.63,419.25 892.54,385.50 893.45,392.55 894.36,404.61 895.27,400.83 896.18,404.83 897.09,392.51 898.00,414.29 898.91,421.30 899.82,452.27 900.73,415.83 901.64,423.87 902.55,432.88 903.46,419.42 904.37,392.43 905.28,433.88 906.19,432.82 907.10,398.45 908.01,393.28 908.92,412.60 909.83,401.58 910.74,434.20 911.65,434.82 912.56,406.85 913.47,408.99 914.38,398.15 915.29,446.92 916.20,437.00 917.11,404.53 918.02,413.65 918.93,399.10 919.84,414.04 920.75,416.81 921.66,397.35 922.57,401.55 923.48,414.31 924.39,411.16 925.30,382.23 926.21,396.36 927.12,435.76 928.03,434.12 928.94,413.57 929.85,421.53 930.76,409.23 931.67,432.29 932.58,409.88 933.49,417.74 934.40,396.66 935.31,382.86 936.22,435.93 937.13,418.47 938.04,417.31 938.95,401.13 939.86,434.88 940.77,464.40 941.68,426.93 942.59,411.26 943.50,397.02 944.41,427.76 945.32,412.12 946.23,409.93 947.14,415.02 948.05,402.34 948.96,402.07 949.87,418.50 950.78,414.79 951.69,425.61 952.60,419.95 953.51,436.14 954.42,430.24 955.33,426.33 956.24,426.93 957.15,414.98 958.06,362.70 958.97,394.00 959.88,440.50 960.79,425.00 961.70,440.72 962.61,417.62 963.52,414.73 964.43,428.73 965.34,421.72 966.25,435.47 967.16,431.27 968.07,436.50 968.98,437.85 969.89,406.65 970.80,386.82 971.71,409.45 972.62,435.55 973.53,420.53 974.44,424.58 975.35,397.19 976.26,395.45 977.17,384.34 978.08,376.56 978.99,412.92 979.90,417.32 980.81,426.35 981.72,416.20 982.63,403.55 983.54,416.11 984.45,384.18 985.36,400.72 986.27,401.23 987.18,375.01 988.09,379.78 989.00,383.66 989.91,386.87 990.82,434.26 991.73,408.80 992.64,379.38 993.55,414.77 994.46,430.36 995.37,406.34 996.28,404.20 997.19,399.57 998.10,433.59 999.01,431.35 999.92,435.92 1000.83,399.95 1001.74,419.54 1002.65,383.27 1003.56,408.59 1004.47,412.63 1005.38,409.58 1006.29,392.19 1007.20,426.01 1008.11,400.10 1009.02,394.10 1009.93,392.84 1010.84,395.24 1011.75,457.00 1012.66,432.09 1013.57,388.64 1014.48,417.88 1015.39,420.13 1016.30,378.75 1017.21,403.08 1018.12,427.80 1019.03,399.60 1019.94,405.49 1020.84,408.44 1021.75,391.85 1022.66,399.31 1023.57,394.08 1024.48,397.75 1025.39,398.26 1026.30,400.26 1027.21,392.09 1028.12,429.27 1029.03,374.89 1029.94,404.67 1030.85,406.73 1031.76,390.33 1032.67,405.69 1033.58,415.33 1034.49,404.54 1035.40,384.32 1036.31,411.27 1037.22,427.45 1038.13,409.03 1039.04,429.72 1039.95,428.62 1040.86,411.46 1041.77,411.85 1042.68,424.43 1043.59,433.43 1044.50,420.63 1045.41,408.10 1046.32,415.32 1047.23,387.68 1048.14,401.30 1049.05,403.97 1049.96,382.85 1050.87,416.92 1051.78,432.46 1052.69,391.28 1053.60,407.94 1054.51,427.20 1055.42,424.06 1056.33,405.89 1057.24,401.36 1058.15,413.01 1059.06,378.31 1059.97,404.45 1060.88,398.10 1061.79,416.20 1062.70,443.45 1063.61,391.90 1064.52,403.43 1065.43,406.26 1066.34,393.17 1067.25,381.46 1068.16,425.43 1069.07,398.32 1069.98,407.93 1070.89,422.37 1071.80,401.23 1072.71,433.44 1073.62,390.12 1074.53,409.44 1075.44,417.11 1076.35,411.35 1077.26,427.45 1078.17,432.27 1079.08,455.56 1079.99,422.79 1080.90,406.60 1081.81,413.61 1082.72,387.73 1083.63,396.79 1084.54,407.01 1085.45,412.99 1086.36,421.99 1087.27,380.49 1088.18,407.32 1089.09,425.85 1090.00,455.89" />
<polyline fill="none" stroke="#1d7f49" stroke-width="3.0" opacity="1.0" points="155.50,236.80 156.41,231.04 157.32,234.14 158.23,234.26 159.14,236.15 160.05,238.17 160.96,241.05 161.87,244.72 162.78,248.89 163.69,253.33 164.60,258.14 165.51,263.14 166.42,268.56 167.33,273.64 168.24,279.29 169.15,284.72 170.06,290.12 170.97,295.06 171.88,299.90 172.79,303.89 173.70,307.80 174.61,312.39 175.52,316.94 176.43,322.33 177.34,326.83 178.25,330.93 179.16,334.33 180.06,338.01 180.97,341.30 181.88,344.56 182.79,347.90 183.70,351.14 184.61,354.00 185.52,356.85 186.43,359.22 187.34,361.91 188.25,364.96 189.16,368.07 190.07,370.81 190.98,372.73 191.89,374.57 192.80,377.29 193.71,380.14 194.62,383.25 195.53,386.10 196.44,388.30 197.35,390.93 198.26,393.46 199.17,396.06 200.08,398.58 200.99,400.57 201.90,403.22 202.81,405.69 203.72,408.06 204.63,410.16 205.54,411.60 206.45,412.21 207.36,412.72 208.27,413.55 209.18,414.09 210.09,414.77 211.00,415.52 211.91,415.90 212.82,416.07 213.73,415.79 214.64,416.13 215.55,417.00 216.46,418.61 217.37,419.80 218.28,420.76 219.19,422.22 220.10,423.09 221.01,423.97 221.92,423.50 222.83,423.38 223.74,423.69 224.65,424.59 225.56,424.75 226.47,424.90 227.38,425.37 228.29,426.24 229.20,426.44 230.11,426.78 231.02,426.46 231.93,426.88 232.84,427.02 233.75,427.85 234.66,428.64 235.57,429.23 236.48,429.51 237.39,429.59 238.30,428.64 239.21,428.09 240.12,427.66 241.03,427.73 241.94,427.98 242.85,426.99 243.76,426.24 244.67,425.72 245.58,426.12 246.49,426.83 247.40,427.10 248.31,426.63 249.22,426.04 250.13,426.10 251.04,426.84 251.95,427.21 252.86,427.54 253.77,427.32 254.68,427.30 255.59,426.73 256.50,426.26 257.41,426.18 258.32,426.20 259.23,427.23 260.14,427.95 261.05,427.90 261.96,426.87 262.87,426.31 263.78,426.56 264.69,426.08 265.60,425.99 266.51,426.06 267.42,426.88 268.33,427.97 269.24,428.32 270.15,428.13 271.06,428.17 271.97,428.58 272.88,428.26 273.79,427.19 274.70,427.49 275.61,428.21 276.52,429.48 277.43,430.11 278.34,430.56 279.25,430.45 280.16,430.24 281.07,429.66 281.98,429.31 282.89,429.50 283.80,430.59 284.71,430.91 285.62,430.52 286.53,429.85 287.44,429.32 288.35,430.27 289.26,430.62 290.17,431.02 291.08,430.82 291.99,430.93 292.90,430.98 293.81,431.75 294.72,432.75 295.63,433.10 296.54,433.28 297.45,433.57 298.36,433.97 299.27,434.53 300.18,435.12 301.09,436.20 302.00,436.63 302.91,436.70 303.82,436.84 304.73,436.26 305.64,435.52 306.55,435.06 307.46,435.11 308.37,435.13 309.28,435.39 310.19,435.28 311.10,434.61 312.01,433.99 312.92,433.31 313.83,432.82 314.74,432.26 315.65,432.30 316.56,432.40 317.47,432.80 318.38,433.81 319.29,434.98 320.19,434.62 321.10,433.50 322.01,432.10 322.92,431.08 323.83,430.94 324.74,430.39 325.65,430.02 326.56,430.34 327.47,430.64 328.38,431.10 329.29,431.08 330.20,430.80 331.11,430.55 332.02,430.87 332.93,431.55 333.84,431.01 334.75,431.15 335.66,431.10 336.57,430.61 337.48,430.06 338.39,429.86 339.30,429.83 340.21,429.52 341.12,429.63 342.03,429.58 342.94,429.28 343.85,428.57 344.76,428.21 345.67,427.29 346.58,426.03 347.49,425.26 348.40,425.03 349.31,424.34 350.22,423.82 351.13,423.38 352.04,422.88 352.95,422.28 353.86,422.78 354.77,422.71 355.68,423.08 356.59,423.38 357.50,423.28 358.41,423.27 359.32,422.89 360.23,422.76 361.14,422.61 362.05,422.57 362.96,422.06 363.87,421.55 364.78,421.48 365.69,421.56 366.60,421.26 367.51,422.36 368.42,423.07 369.33,423.01 370.24,423.19 371.15,423.24 372.06,423.11 372.97,422.67 373.88,421.87 374.79,421.27 375.70,421.78 376.61,421.78 377.52,420.98 378.43,420.59 379.34,420.68 380.25,420.37 381.16,419.55 382.07,419.73 382.98,420.10 383.89,419.97 384.80,419.31 385.71,418.74 386.62,418.55 387.53,418.41 388.44,418.45 389.35,419.11 390.26,419.72 391.17,420.08 392.08,420.94 392.99,421.68 393.90,421.87 394.81,422.16 395.72,422.13 396.63,422.36 397.54,422.82 398.45,422.81 399.36,421.64 400.27,420.96 401.18,421.07 402.09,421.97 403.00,422.67 403.91,423.39 404.82,423.69 405.73,424.16 406.64,423.95 407.55,423.80 408.46,424.19 409.37,424.44 410.28,423.92 411.19,423.70 412.10,424.29 413.01,424.07 413.92,424.70 414.83,425.78 415.74,426.23 416.65,426.39 417.56,426.45 418.47,426.22 419.38,426.01 420.29,426.40 421.20,426.64 422.11,427.12 423.02,427.33 423.93,427.35 424.84,426.74 425.75,426.43 426.66,426.89 427.57,427.16 428.48,426.86 429.39,427.28 430.30,428.06 431.21,428.96 432.12,429.12 433.03,428.99 433.94,428.49 434.85,427.71 435.76,427.04 436.67,427.20 437.58,426.45 438.49,426.20 439.40,426.37 440.31,426.68 441.22,426.78 442.13,426.67 443.04,426.72 443.95,427.58 444.86,428.16 445.77,428.64 446.68,428.81 447.59,428.15 448.50,427.64 449.41,427.17 450.32,426.93 451.23,426.78 452.14,427.17 453.05,426.80 453.96,425.94 454.87,425.28 455.78,425.85 456.69,426.52 457.60,426.44 458.51,426.61 459.42,425.52 460.32,424.01 461.23,423.39 462.14,423.05 463.05,422.71 463.96,423.03 464.87,423.60 465.78,423.87 466.69,423.50 467.60,422.65 468.51,422.43 469.42,421.88 470.33,422.36 471.24,422.22 472.15,422.18 473.06,422.07 473.97,422.14 474.88,421.72 475.79,420.99 476.70,420.15 477.61,419.84 478.52,419.91 479.43,420.32 480.34,420.14 481.25,419.73 482.16,419.26 483.07,419.57 483.98,418.95 484.89,419.16 485.80,419.32 486.71,419.74 487.62,419.77 488.53,419.93 489.44,419.45 490.35,419.80 491.26,420.05 492.17,419.56 493.08,419.18 493.99,419.69 494.90,419.66 495.81,419.60 496.72,419.01 497.63,418.54 498.54,418.93 499.45,419.77 500.36,419.97 501.27,419.47 502.18,418.77 503.09,418.60 504.00,418.88 504.91,419.96 505.82,420.72 506.73,420.74 507.64,420.74 508.55,420.95 509.46,420.76 510.37,420.73 511.28,420.73 512.19,421.04 513.10,421.87 514.01,422.25 514.92,422.59 515.83,422.52 516.74,422.99 517.65,423.06 518.56,423.58 519.47,423.82 520.38,423.26 521.29,422.50 522.20,423.28 523.11,423.69 524.02,423.81 524.93,424.28 525.84,424.73 526.75,425.10 527.66,425.09 528.57,425.69 529.48,426.87 530.39,426.38 531.30,426.53 532.21,426.20 533.12,426.15 534.03,426.38 534.94,426.60 535.85,426.27 536.76,426.50 537.67,426.90 538.58,427.24 539.49,427.06 540.40,426.62 541.31,426.35 542.22,425.99 543.13,426.38 544.04,427.08 544.95,426.76 545.86,427.73 546.77,427.72 547.68,427.21 548.59,427.55 549.50,427.14 550.41,426.75 551.32,426.69 552.23,426.80 553.14,427.19 554.05,426.96 554.96,427.24 555.87,427.31 556.78,426.84 557.69,426.06 558.60,425.40 559.51,424.43 560.42,423.89 561.33,423.99 562.24,423.74 563.15,423.52 564.06,423.15 564.97,423.32 565.88,423.87 566.79,424.52 567.70,424.18 568.61,423.42 569.52,422.64 570.43,422.19 571.34,422.71 572.25,422.19 573.16,422.21 574.07,421.56 574.98,421.21 575.89,421.47 576.80,421.15 577.71,421.27 578.62,421.05 579.53,420.64 580.44,420.62 581.35,420.25 582.26,419.78 583.17,419.44 584.08,419.00 584.99,418.80 585.90,418.51 586.81,418.89 587.72,420.00 588.63,419.80 589.54,419.37 590.45,419.47 591.36,418.69 592.27,418.23 593.18,418.39 594.09,418.31 595.00,417.98 595.91,417.80 596.82,417.86 597.73,417.81 598.64,417.01 599.55,416.76 600.45,417.01 601.36,416.93 602.27,416.44 603.18,416.20 604.09,415.88 605.00,416.22 605.91,415.96 606.82,415.58 607.73,416.12 608.64,416.72 609.55,416.88 610.46,416.30 611.37,416.52 612.28,416.90 613.19,416.34 614.10,416.97 615.01,417.66 615.92,417.39 616.83,416.90 617.74,416.76 618.65,416.50 619.56,417.11 620.47,417.43 621.38,417.28 622.29,417.83 623.20,417.39 624.11,417.32 625.02,417.85 625.93,418.06 626.84,418.69 627.75,418.72 628.66,418.82 629.57,419.26 630.48,419.87 631.39,420.51 632.30,420.15 633.21,419.56 634.12,419.98 635.03,420.02 635.94,420.50 636.85,420.69 637.76,421.23 638.67,421.46 639.58,421.59 640.49,421.60 641.40,421.22 642.31,420.64 643.22,420.82 644.13,421.74 645.04,422.25 645.95,421.71 646.86,421.80 647.77,422.17 648.68,422.60 649.59,422.90 650.50,423.35 651.41,423.35 652.32,423.43 653.23,423.27 654.14,422.44 655.05,421.74 655.96,421.98 656.87,422.13 657.78,422.09 658.69,421.98 659.60,422.00 660.51,421.42 661.42,421.80 662.33,421.05 663.24,421.37 664.15,422.21 665.06,422.00 665.97,421.74 666.88,421.79 667.79,421.63 668.70,421.43 669.61,421.54 670.52,420.72 671.43,420.09 672.34,419.65 673.25,420.01 674.16,420.10 675.07,419.98 675.98,419.28 676.89,419.20 677.80,419.20 678.71,418.97 679.62,418.63 680.53,418.51 681.44,418.04 682.35,418.17 683.26,417.82 684.17,417.76 685.08,417.95 685.99,418.37 686.90,419.02 687.81,419.53 688.72,418.84 689.63,418.63 690.54,418.60 691.45,418.85 692.36,418.69 693.27,418.64 694.18,417.92 695.09,417.93 696.00,417.82 696.91,418.39 697.82,418.54 698.73,418.40 699.64,418.07 700.55,418.91 701.46,419.02 702.37,419.03 703.28,419.38 704.19,419.69 705.10,418.95 706.01,419.58 706.92,420.01 707.83,421.32 708.74,421.84 709.65,421.72 710.56,421.53 711.47,421.07 712.38,421.13 713.29,421.06 714.20,421.39 715.11,421.67 716.02,421.80 716.93,422.04 717.84,422.04 718.75,421.75 719.66,421.74 720.57,421.51 721.48,421.86 722.39,421.80 723.30,421.85 724.21,422.66 725.12,422.51 726.03,422.35 726.94,422.04 727.85,421.87 728.76,422.09 729.67,421.74 730.58,420.22 731.49,419.23 732.40,418.03 733.31,417.68 734.22,418.05 735.13,417.75 736.04,417.80 736.95,417.81 737.86,417.72 738.77,418.26 739.68,419.63 740.58,419.63 741.49,419.90 742.40,419.81 743.31,420.09 744.22,420.14 745.13,420.88 746.04,420.15 746.95,420.01 747.86,419.24 748.77,419.11 749.68,419.75 750.59,420.37 751.50,420.04 752.41,420.05 753.32,419.55 754.23,418.82 755.14,418.17 756.05,418.14 756.96,418.50 757.87,418.22 758.78,417.93 759.69,418.30 760.60,418.08 761.51,417.56 762.42,417.42 763.33,417.91 764.24,417.80 765.15,417.70 766.06,418.28 766.97,418.47 767.88,418.42 768.79,418.60 769.70,418.26 770.61,419.11 771.52,419.71 772.43,419.58 773.34,418.87 774.25,418.90 775.16,419.56 776.07,420.78 776.98,421.31 777.89,422.34 778.80,422.80 779.71,423.01 780.62,422.64 781.53,422.81 782.44,423.08 783.35,423.42 784.26,423.09 785.17,422.32 786.08,422.46 786.99,422.93 787.90,423.25 788.81,423.20 789.72,423.65 790.63,424.06 791.54,423.82 792.45,422.78 793.36,422.99 794.27,422.90 795.18,422.64 796.09,421.50 797.00,421.57 797.91,421.49 798.82,421.45 799.73,421.44 800.64,421.85 801.55,421.76 802.46,421.05 803.37,420.39 804.28,419.71 805.19,419.58 806.10,419.81 807.01,420.12 807.92,420.35 808.83,419.81 809.74,419.00 810.65,418.71 811.56,418.15 812.47,418.12 813.38,418.51 814.29,418.51 815.20,418.64 816.11,417.70 817.02,416.61 817.93,416.71 818.84,416.78 819.75,416.38 820.66,416.61 821.57,416.50 822.48,415.84 823.39,414.91 824.30,414.13 825.21,414.17 826.12,414.67 827.03,414.30 827.94,413.52 828.85,412.80 829.76,412.79 830.67,413.32 831.58,413.49 832.49,413.08 833.40,413.42 834.31,413.63 835.22,413.01 836.13,412.14 837.04,412.45 837.95,412.87 838.86,412.67 839.77,412.48 840.68,411.71 841.59,412.06 842.50,411.76 843.41,411.19 844.32,410.71 845.23,410.91 846.14,410.67 847.05,411.13 847.96,411.96 848.87,413.09 849.78,413.26 850.69,412.70 851.60,412.22 852.51,411.80 853.42,411.44 854.33,411.63 855.24,412.73 856.15,413.23 857.06,414.00 857.97,413.09 858.88,413.07 859.79,413.76 860.70,413.74 861.61,413.53 862.52,413.71 863.43,414.12 864.34,414.91 865.25,415.08 866.16,414.58 867.07,414.11 867.98,414.67 868.89,415.25 869.80,415.99 870.71,415.87 871.62,415.62 872.53,415.85 873.44,416.48 874.35,416.76 875.26,416.61 876.17,415.48 877.08,415.19 877.99,415.30 878.90,414.94 879.81,414.00 880.71,413.77 881.62,414.20 882.53,414.61 883.44,414.46 884.35,415.22 885.26,415.70 886.17,416.72 887.08,417.32 887.99,417.79 888.90,418.07 889.81,418.17 890.72,418.39 891.63,418.61 892.54,417.65 893.45,416.87 894.36,416.22 895.27,416.27 896.18,416.48 897.09,416.26 898.00,416.72 898.91,417.04 899.82,417.64 900.73,417.25 901.64,417.12 902.55,416.85 903.46,417.46 904.37,416.75 905.28,416.38 906.19,416.57 907.10,416.50 908.01,416.27 908.92,416.06 909.83,415.35 910.74,415.78 911.65,416.34 912.56,416.57 913.47,416.62 914.38,416.34 915.29,416.75 916.20,417.16 917.11,417.09 918.02,416.76 918.93,416.18 919.84,416.21 920.75,416.24 921.66,416.46 922.57,416.38 923.48,416.09 924.39,415.68 925.30,415.31 926.21,414.96 927.12,415.29 928.03,415.31 928.94,415.77 929.85,415.42 930.76,414.61 931.67,414.42 932.58,414.18 933.49,413.97 934.40,413.25 935.31,412.78 936.22,413.05 937.13,413.04 938.04,413.67 938.95,413.84 939.86,414.45 940.77,415.72 941.68,416.16 942.59,416.54 943.50,416.19 944.41,416.32 945.32,415.52 946.23,415.40 947.14,415.22 948.05,414.61 948.96,414.26 949.87,414.79 950.78,414.40 951.69,414.26 952.60,414.69 953.51,415.55 954.42,415.90 955.33,416.40 956.24,416.25 957.15,415.85 958.06,414.97 958.97,414.67 959.88,415.52 960.79,415.08 961.70,415.15 962.61,415.42 963.52,415.44 964.43,416.03 965.34,416.18 966.25,416.56 967.16,417.23 968.07,417.93 968.98,418.40 969.89,418.31 970.80,418.41 971.71,418.67 972.62,418.66 973.53,418.39 974.44,418.61 975.35,418.13 976.26,417.85 977.17,416.89 978.08,416.22 978.99,416.13 979.90,416.54 980.81,417.41 981.72,417.02 982.63,416.72 983.54,416.69 984.45,416.35 985.36,415.67 986.27,414.41 987.18,413.37 988.09,412.74 989.00,412.47 989.91,411.66 990.82,412.10 991.73,412.08 992.64,411.36 993.55,411.61 994.46,412.18 995.37,411.93 996.28,411.72 997.19,411.20 998.10,411.47 999.01,411.38 999.92,411.49 1000.83,410.96 1001.74,410.82 1002.65,410.18 1003.56,411.10 1004.47,411.47 1005.38,410.85 1006.29,410.20 1007.20,409.90 1008.11,409.55 1009.02,409.14 1009.93,408.42 1010.84,407.89 1011.75,408.32 1012.66,408.34 1013.57,407.38 1014.48,406.98 1015.39,407.25 1016.30,407.09 1017.21,406.96 1018.12,406.81 1019.03,406.39 1019.94,406.01 1020.84,406.23 1021.75,406.16 1022.66,406.46 1023.57,406.81 1024.48,406.51 1025.39,406.13 1026.30,405.61 1027.21,405.12 1028.12,405.64 1029.03,404.81 1029.94,405.22 1030.85,405.34 1031.76,405.13 1032.67,405.74 1033.58,406.45 1034.49,406.87 1035.40,406.82 1036.31,406.36 1037.22,406.73 1038.13,407.32 1039.04,407.62 1039.95,407.59 1040.86,407.69 1041.77,407.84 1042.68,408.34 1043.59,408.34 1044.50,408.12 1045.41,407.57 1046.32,407.87 1047.23,407.24 1048.14,407.60 1049.05,407.50 1049.96,406.91 1050.87,407.06 1051.78,407.86 1052.69,407.17 1053.60,407.32 1054.51,407.99 1055.42,408.61 1056.33,408.82 1057.24,407.71 1058.15,407.33 1059.06,407.12 1059.97,406.85 1060.88,406.41 1061.79,407.16 1062.70,407.97 1063.61,407.25 1064.52,407.33 1065.43,407.34 1066.34,407.04 1067.25,406.83 1068.16,407.35 1069.07,407.44 1069.98,407.64 1070.89,408.12 1071.80,408.14 1072.71,408.97 1073.62,408.19 1074.53,408.88 1075.44,409.13 1076.35,409.22 1077.26,409.96 1078.17,410.49 1079.08,411.30 1079.99,411.66 1080.90,412.11 1081.81,412.15 1082.72,411.36 1083.63,411.12 1084.54,410.66 1085.45,410.35 1086.36,410.56 1087.27,409.93 1088.18,409.59 1089.09,409.44 1090.00,410.14" />
<text x="600.0" y="642" text-anchor="middle" font-family="Arial" font-size="14">Timesteps</text>
<g transform="translate(42,355.0) rotate(-90)"><text text-anchor="middle" font-family="Arial" font-size="14">policy_reward_mean/default</text></g>
<rect x="760" y="138" width="305" height="70" fill="#fafafa" stroke="#dddddd" />
<line x1="772" y1="160" x2="812" y2="160" stroke="#9fcdb5" stroke-width="1.5" />
<text x="820" y="164" font-family="Arial" font-size="12">Raw policy_reward_mean/default</text>
<line x1="772" y1="186" x2="812" y2="186" stroke="#1d7f49" stroke-width="3" />
<text x="820" y="190" font-family="Arial" font-size="12">Rolling mean (window=50)</text>
</svg>