<svg xmlns="http://www.w3.org/2000/svg" width="1200" height="760">
<rect x="0" y="0" width="1200" height="760" fill="#f7f8fb" />
<text x="110" y="60" font-family="Arial" font-size="28" font-weight="bold">Reward Curve for Baseline PPO (Submission 1)</text>
<text x="110" y="92" font-family="Arial" font-size="15" fill="#444">Metric: episode_reward_mean</text>
<rect x="110" y="120" width="980" height="470" fill="white" stroke="#cfcfcf" />
<line x1="110.0" y1="120" x2="110.0" y2="590" stroke="#efefef" stroke-width="1" />
<text x="110.0" y="614" text-anchor="middle" font-family="Arial" font-size="12">0M</text>
<line x1="217.2" y1="120" x2="217.2" y2="590" stroke="#efefef" stroke-width="1" />
<text x="217.2" y="614" text-anchor="middle" font-family="Arial" font-size="12">1M</text>
<line x1="324.4" y1="120" x2="324.4" y2="590" stroke="#efefef" stroke-width="1" />
<text x="324.4" y="614" text-anchor="middle" font-family="Arial" font-size="12">2M</text>
<line x1="431.7" y1="120" x2="431.7" y2="590" stroke="#efefef" stroke-width="1" />
<text x="431.7" y="614" text-anchor="middle" font-family="Arial" font-size="12">3M</text>
<line x1="538.9" y1="120" x2="538.9" y2="590" stroke="#efefef" stroke-width="1" />
<text x="538.9" y="614" text-anchor="middle" font-family="Arial" font-size="12">4M</text>
<line x1="646.1" y1="120" x2="646.1" y2="590" stroke="#efefef" stroke-width="1" />
<text x="646.1" y="614" text-anchor="middle" font-family="Arial" font-size="12">5M</text>
<line x1="753.3" y1="120" x2="753.3" y2="590" stroke="#efefef" stroke-width="1" />
<text x="753.3" y="614" text-anchor="middle" font-family="Arial" font-size="12">6M</text>
<line x1="860.5" y1="120" x2="860.5" y2="590" stroke="#efefef" stroke-width="1" />
<text x="860.5" y="614" text-anchor="middle" font-family="Arial" font-size="12">7M</text>
<line x1="967.8" y1="120" x2="967.8" y2="590" stroke="#efefef" stroke-width="1" />
<text x="967.8" y="614" text-anchor="middle" font-family="Arial" font-size="12">8M</text>
<line x1="1075.0" y1="120" x2="1075.0" y2="590" stroke="#efefef" stroke-width="1" />
<text x="1075.0" y="614" text-anchor="middle" font-family="Arial" font-size="12">9M</text>
<line x1="110" y1="589.1" x2="1090" y2="589.1" stroke="#d6d6d6" stroke-width="1" />
<text x="100" y="593.1" text-anchor="end" font-family="Arial" font-size="12">-0.53</text>
<line x1="110" y1="511.8" x2="1090" y2="511.8" stroke="#d6d6d6" stroke-width="1" />
<text x="100" y="515.8" text-anchor="end" font-family="Arial" font-size="12">-0.11</text>
<line x1="110" y1="432.6" x2="1090" y2="432.6" stroke="#d6d6d6" stroke-width="1" />
<text x="100" y="436.6" text-anchor="end" font-family="Arial" font-size="12">0.32</text>
<line x1="110" y1="355.3" x2="1090" y2="355.3" stroke="#d6d6d6" stroke-width="1" />
<text x="100" y="359.3" text-anchor="end" font-family="Arial" font-size="12">0.74</text>
<line x1="110" y1="276.2" x2="1090" y2="276.2" stroke="#d6d6d6" stroke-width="1" />
<text x="100" y="280.2" text-anchor="end" font-family="Arial" font-size="12">1.17</text>
<line x1="110" y1="198.9" x2="1090" y2="198.9" stroke="#d6d6d6" stroke-width="1" />
<text x="100" y="202.9" text-anchor="end" font-family="Arial" font-size="12">1.59</text>
<line x1="110" y1="119.7" x2="1090" y2="119.7" stroke="#d6d6d6" stroke-width="1" />
<text x="100" y="123.7" text-anchor="end" font-family="Arial" font-size="12">2.02</text>
<polyline fill="none" stroke="#9bbbe6" stroke-width="1.5" opacity="0.9" points="110.86,444.19 111.29,538.33 111.72,543.96 112.14,528.14 112.57,548.65 113.00,531.62 113.43,524.75 113.86,533.27 114.29,528.41 114.72,517.03 115.15,514.58 115.58,520.49 116.00,525.06 116.43,530.10 116.86,540.48 117.29,539.14 117.72,545.55 118.15,544.24 118.58,549.61 119.01,548.96 119.44,544.82 119.86,548.02 120.29,545.75 120.72,545.28 121.15,536.81 121.58,541.05 122.01,539.66 122.44,535.43 122.87,543.46 123.30,540.37 123.72,540.37 124.15,548.19 124.58,545.02 125.01,549.05 125.44,536.24 125.87,528.88 126.30,535.74 126.73,531.51 127.16,530.40 127.58,517.31 128.01,516.35 128.44,520.58 128.87,521.84 129.30,530.77 129.73,530.77 130.16,530.77 130.59,530.77 131.02,531.24 131.44,531.24 131.87,529.77 132.30,530.79 132.73,530.10 133.16,534.33 133.59,533.31 134.02,534.85 134.45,540.58 134.88,547.67 135.30,539.30 135.73,539.30 136.16,540.07 136.59,535.84 137.02,550.40 137.45,549.86 137.88,547.72 138.31,551.96 138.74,536.28 139.16,544.74 139.59,548.98 140.02,542.69 140.45,545.56 140.88,545.56 141.31,538.15 141.74,542.38 142.17,538.70 142.60,538.95 143.02,533.37 143.45,533.37 143.88,523.72 144.31,523.72 144.74,526.75 145.17,526.75 145.60,526.53 146.03,539.62 146.46,531.15 146.88,528.43 147.31,523.56 147.74,519.32 148.17,516.22 148.60,527.67 149.03,527.26 149.46,520.85 149.89,516.69 150.32,516.69 150.74,524.11 151.17,524.11 151.60,523.57 152.03,527.25 152.46,527.25 152.89,527.25 153.32,523.01 153.75,523.01 154.18,524.20 154.60,524.20 155.03,517.85 155.46,521.41 155.89,521.94 156.32,525.30 156.75,528.33 157.18,531.11 157.61,535.34 158.04,542.68 158.46,532.95 158.89,529.13 159.32,536.12 159.75,536.12 160.18,534.36 160.61,538.59 161.04,539.13 161.47,533.24 161.89,529.89 162.32,526.72 162.75,530.95 163.18,527.33 163.61,527.33 164.04,527.33 164.47,538.80 164.90,529.65 165.33,523.36 165.75,512.06 166.18,514.13 166.61,509.30 167.04,513.53 167.47,504.14 167.90,506.87 168.33,508.26 168.76,500.49 169.19,505.64 169.61,505.32 170.04,497.25 170.47,490.95 170.90,490.47 171.33,491.88 171.76,491.11 172.19,491.11 172.62,497.19 173.05,492.96 173.47,492.96 173.90,483.31 174.33,482.07 174.76,489.55 175.19,489.55 175.62,493.79 176.05,498.62 176.48,502.47 176.91,506.54 177.33,506.54 177.76,510.77 178.19,514.31 178.62,518.60 179.05,522.75 179.48,530.81 179.91,532.87 180.34,537.09 180.77,535.34 181.19,533.77 181.62,534.72 182.05,532.26 182.48,534.13 182.91,531.24 183.34,532.43 183.77,534.35 184.20,531.69 184.63,529.27 185.05,533.51 185.48,529.27 185.91,516.07 186.34,516.07 186.77,516.07 187.20,516.07 187.63,516.85 188.06,521.09 188.49,511.09 188.91,508.54 189.34,514.15 189.77,502.41 190.20,513.91 190.63,514.62 191.06,513.60 191.49,524.44 191.92,541.48 192.35,541.48 192.77,545.20 193.20,548.24 193.63,546.42 194.06,535.76 194.49,537.18 194.92,543.52 195.35,543.52 195.78,543.52 196.21,539.28 196.63,541.39 197.06,545.63 197.49,543.44 197.92,539.21 198.35,541.92 198.78,549.42 199.21,545.19 199.64,537.12 200.07,538.13 200.49,529.80 200.92,517.10 201.35,511.41 201.78,514.58 202.21,510.34 202.64,513.78 203.07,509.55 203.50,516.00 203.93,520.23 204.35,528.70 204.78,524.47 205.21,524.47 205.64,524.47 206.07,522.35 206.50,506.62 206.93,505.53 207.36,513.31 207.79,521.78 208.21,522.43 208.64,518.20 209.07,533.08 209.50,528.71 209.93,528.58 210.36,529.42 210.79,526.58 211.22,525.21 211.65,522.23 212.07,517.90 212.50,521.60 212.93,527.56 213.36,527.56 213.79,512.23 214.22,518.59 214.65,512.93 215.08,506.96 215.51,506.96 215.93,507.85 216.36,507.85 216.79,498.53 217.22,498.53 217.65,497.68 218.08,501.91 218.51,497.68 218.94,494.20 219.37,499.59 219.79,498.75 220.22,511.63 220.65,511.63 221.08,511.75 221.51,508.78 221.94,508.88 222.37,503.42 222.80,499.18 223.23,499.18 223.65,503.92 224.08,521.37 224.51,521.73 224.94,524.59 225.37,525.36 225.80,526.06 226.23,530.29 226.66,535.38 227.09,537.16 227.51,538.59 227.94,536.85 228.37,536.85 228.80,539.21 229.23,550.37 229.66,543.50 230.09,553.30 230.52,565.20 230.95,565.20 231.37,570.67 231.80,571.48 232.23,571.48 232.66,564.18 233.09,551.48 233.52,562.83 233.95,570.77 234.38,563.72 234.81,566.92 235.23,555.50 235.66,551.26 236.09,558.30 236.52,557.63 236.95,554.06 237.38,559.71 237.81,542.78 238.24,542.80 238.67,534.76 239.09,544.29 239.52,528.65 239.95,537.12 240.38,540.54 240.81,529.97 241.24,536.54 241.67,538.18 242.10,537.42 242.53,535.32 242.95,527.37 243.38,536.79 243.81,540.96 244.24,543.42 244.67,547.65 245.10,542.34 245.53,544.95 245.96,553.29 246.39,553.29 246.81,564.89 247.24,571.59 247.67,557.35 248.10,568.76 248.53,547.76 248.96,564.70 249.39,567.65 249.82,561.48 250.25,561.48 250.67,568.12 251.10,561.56 251.53,561.56 251.96,556.75 252.39,557.10 252.82,552.87 253.25,554.50 253.68,560.59 254.11,557.99 254.53,545.29 254.96,546.97 255.39,536.29 255.82,536.31 256.25,529.70 256.68,527.27 257.11,513.01 257.54,517.19 257.96,513.80 258.39,505.33 258.82,512.94 259.25,518.97 259.68,518.97 260.11,516.82 260.54,525.24 260.97,529.48 261.40,523.89 261.82,523.94 262.25,531.01 262.68,518.95 263.11,516.66 263.54,516.66 263.97,512.43 264.40,511.09 264.83,512.17 265.26,515.35 265.68,531.70 266.11,540.51 266.54,540.07 266.97,548.54 267.40,545.21 267.83,540.97 268.26,536.88 268.69,519.14 269.12,518.07 269.54,513.93 269.97,506.68 270.40,521.13 270.83,514.31 271.26,520.68 271.69,520.68 272.12,517.88 272.55,524.51 272.98,527.53 273.40,532.35 273.83,524.38 274.26,525.35 274.69,513.48 275.12,512.98 275.55,509.46 275.98,501.00 276.41,504.94 276.84,504.94 277.26,511.07 277.69,511.01 278.12,511.01 278.55,511.47 278.98,503.86 279.41,498.49 279.84,499.91 280.27,495.15 280.70,490.29 281.12,492.29 281.55,488.31 281.98,488.42 282.41,488.42 282.84,489.07 283.27,484.99 283.70,480.54 284.13,482.33 284.56,478.10 284.98,481.10 285.41,481.10 285.84,480.22 286.27,478.70 286.70,487.57 287.13,490.36 287.56,486.21 287.99,489.35 288.42,495.74 288.84,495.17 289.27,499.40 289.70,503.41 290.13,507.65 290.56,502.27 290.99,502.16 291.42,504.86 291.85,507.00 292.28,511.26 292.70,513.74 293.13,520.29 293.56,522.48 293.99,523.87 294.42,528.10 294.85,527.68 295.28,529.20 295.71,529.20 296.14,520.73 296.56,521.08 296.99,517.27 297.42,513.03 297.85,515.96 298.28,515.24 298.71,513.45 299.14,515.30 299.57,511.07 300.00,507.25 300.42,517.38 300.85,518.90 301.28,510.20 301.71,514.09 302.14,514.27 302.57,516.27 303.00,516.33 303.43,512.43 303.86,501.88 304.28,497.65 304.71,506.12 305.14,506.12 305.57,510.35 306.00,515.92 306.43,515.88 306.86,520.11 307.29,519.17 307.72,517.34 308.14,515.48 308.57,513.19 309.00,521.25 309.43,517.05 309.86,508.58 310.29,512.67 310.72,508.44 311.15,509.74 311.58,507.20 312.00,503.00 312.43,496.82 312.86,493.24 313.29,493.31 313.72,494.13 314.15,498.36 314.58,486.75 315.01,482.69 315.44,478.46 315.86,475.56 316.29,479.80 316.72,477.74 317.15,481.37 317.58,481.54 318.01,477.80 318.44,472.18 318.87,472.18 319.30,468.25 319.72,468.76 320.15,473.30 320.58,473.30 321.01,482.28 321.44,493.98 321.87,495.78 322.30,491.70 322.73,491.70 323.16,500.14 323.58,499.18 324.01,488.80 324.44,490.43 324.87,483.58 325.30,480.93 325.73,489.40 326.16,480.29 326.59,488.10 327.02,488.97 327.44,498.82 327.87,503.05 328.30,509.46 328.73,514.72 329.16,514.72 329.59,516.92 330.02,509.85 330.45,505.62 330.88,508.67 331.30,515.40 331.73,509.52 332.16,503.17 332.59,510.22 333.02,517.66 333.45,523.51 333.88,523.51 334.31,535.59 334.74,536.28 335.16,534.39 335.59,542.30 336.02,545.08 336.45,545.08 336.88,533.17 337.31,533.17 337.74,530.47 338.17,529.02 338.60,526.82 339.02,526.82 339.45,525.10 339.88,522.62 340.31,514.15 340.74,515.29 341.17,520.03 341.60,522.09 342.03,518.19 342.46,518.26 342.88,520.82 343.31,517.77 343.74,504.13 344.17,504.13 344.60,502.69 345.03,500.99 345.46,494.85 345.89,489.26 346.32,492.12 346.74,496.95 347.17,492.70 347.60,494.15 348.03,494.15 348.46,502.62 348.89,503.85 349.32,521.89 349.75,531.33 350.18,527.10 350.60,526.41 351.03,527.08 351.46,525.71 351.89,519.29 352.32,516.80 352.75,519.85 353.18,514.45 353.61,518.69 354.04,520.40 354.46,518.98 354.89,528.80 355.32,525.85 355.75,525.85 356.18,524.77 356.61,524.77 357.04,520.54 357.47,520.54 357.89,523.35 358.32,523.35 358.75,509.68 359.18,509.68 359.61,513.91 360.04,527.18 360.47,527.26 360.90,528.24 361.33,533.14 361.75,532.48 362.18,543.56 362.61,556.26 363.04,554.26 363.47,554.26 363.90,548.64 364.33,555.82 364.76,553.12 365.19,559.77 365.61,556.21 366.04,552.40 366.47,529.19 366.90,529.69 367.33,533.93 367.76,538.16 368.19,529.69 368.62,524.32 369.05,511.62 369.47,512.57 369.90,510.50 370.33,522.00 370.76,517.14 371.19,518.66 371.62,496.95 372.05,497.79 372.48,489.81 372.91,491.20 373.33,491.86 373.76,491.86 374.19,499.72 374.62,499.72 375.05,503.00 375.48,517.74 375.91,521.97 376.34,513.93 376.77,509.06 377.19,517.14 377.62,515.71 378.05,510.40 378.48,510.09 378.91,502.53 379.34,496.25 379.77,499.58 380.20,496.94 380.63,503.80 381.05,499.56 381.48,502.53 381.91,506.76 382.34,504.34 382.77,500.71 383.20,492.35 383.63,486.52 384.06,483.25 384.49,480.58 384.91,476.10 385.34,476.02 385.77,479.68 386.20,477.35 386.63,482.03 387.06,487.34 387.49,481.76 387.92,493.04 388.35,491.80 388.77,491.80 389.20,497.81 389.63,495.20 390.06,499.43 390.49,507.50 390.92,503.26 391.35,509.19 391.78,509.19 392.21,520.71 392.63,523.91 393.06,530.68 393.49,513.05 393.92,511.73 394.35,512.59 394.78,509.67 395.21,518.72 395.64,518.72 396.07,526.11 396.49,530.34 396.92,530.75 397.35,529.57 397.78,535.51 398.21,531.83 398.64,529.38 399.07,529.71 399.50,524.58 399.93,525.29 400.35,526.02 400.78,528.53 401.21,528.53 401.64,523.68 402.07,524.94 402.50,527.74 402.93,535.17 403.36,544.04 403.79,544.70 404.21,537.59 404.64,528.65 405.07,528.65 405.50,514.74 405.93,506.02 406.36,506.86 406.79,508.04 407.22,506.85 407.65,501.00 408.07,508.58 408.50,509.12 408.93,512.87 409.36,501.41 409.79,505.64 410.22,505.64 410.65,504.74 411.08,510.16 411.51,513.24 411.93,512.66 412.36,516.89 412.79,516.31 413.22,526.63 413.65,522.39 414.08,521.53 414.51,525.13 414.94,527.48 415.37,520.28 415.79,521.47 416.22,530.11 416.65,535.05 417.08,538.74 417.51,542.98 417.94,546.65 418.37,542.41 418.80,538.18 419.23,529.68 419.65,529.68 420.08,526.88 420.51,526.10 420.94,523.60 421.37,515.44 421.80,530.98 422.23,525.32 422.66,532.35 423.09,532.35 423.51,535.87 423.94,547.30 424.37,547.30 424.80,540.02 425.23,537.25 425.66,524.55 426.09,520.31 426.52,513.46 426.95,515.33 427.37,515.98 427.80,523.83 428.23,523.14 428.66,521.44 429.09,527.29 429.52,520.53 429.95,532.92 430.38,524.46 430.81,527.29 431.23,535.18 431.66,535.18 432.09,530.94 432.52,521.35 432.95,528.63 433.38,532.86 433.81,532.69 434.24,528.46 434.67,527.97 435.09,532.21 435.52,520.50 435.95,508.15 436.38,511.00 436.81,508.80 437.24,508.47 437.67,515.56 438.10,509.61 438.53,505.38 438.95,505.38 439.38,505.38 439.81,505.38 440.24,508.38 440.67,504.15 441.10,503.30 441.53,504.04 441.96,507.65 442.39,489.82 442.81,505.44 443.24,509.50 443.67,512.61 444.10,517.80 444.53,516.73 444.96,526.43 445.39,528.75 445.82,530.23 446.25,529.33 446.67,519.27 447.10,522.40 447.53,522.40 447.96,517.41 448.39,511.26 448.82,515.49 449.25,525.71 449.68,520.11 450.11,521.13 450.53,531.48 450.96,532.40 451.39,528.17 451.82,526.29 452.25,522.06 452.68,526.04 453.11,530.28 453.54,531.35 453.96,529.77 454.39,527.63 454.82,528.84 455.25,528.84 455.68,525.27 456.11,527.09 456.54,518.12 456.97,519.67 457.40,527.34 457.82,531.88 458.25,530.37 458.68,528.09 459.11,529.46 459.54,533.69 459.97,536.81 460.40,531.08 460.83,525.22 461.26,527.26 461.68,528.07 462.11,523.84 462.54,523.84 462.97,523.84 463.40,532.48 463.83,532.48 464.26,523.71 464.69,525.65 465.12,519.76 465.54,518.63 465.97,518.63 466.40,514.55 466.83,509.62 467.26,502.85 467.69,492.42 468.12,489.32 468.55,483.74 468.98,492.20 469.40,496.47 469.83,500.70 470.26,500.70 470.69,502.77 471.12,501.80 471.55,495.02 471.98,493.95 472.41,491.46 472.84,490.30 473.26,494.67 473.69,495.96 474.12,505.20 474.55,510.86 474.98,513.44 475.41,519.14 475.84,532.10 476.27,538.78 476.70,533.21 477.12,533.89 477.55,519.93 477.98,524.17 478.41,512.54 478.84,513.44 479.27,508.74 479.70,509.35 480.13,507.71 480.56,513.60 480.98,511.17 481.41,507.26 481.84,511.17 482.27,510.42 482.70,509.76 483.13,502.31 483.56,504.48 483.99,502.76 484.42,494.29 484.84,498.62 485.27,512.65 485.70,519.20 486.13,519.08 486.56,517.11 486.99,513.60 487.42,519.72 487.85,526.93 488.28,534.36 488.70,534.68 489.13,525.22 489.56,528.23 489.99,526.82 490.42,529.36 490.85,525.12 491.28,513.39 491.71,511.49 492.14,508.02 492.56,505.41 492.99,501.79 493.42,502.15 493.85,502.15 494.28,477.86 494.71,476.68 495.14,481.80 495.57,486.04 496.00,491.62 496.42,490.61 496.85,486.24 497.28,478.65 497.71,468.75 498.14,468.37 498.57,465.45 499.00,469.49 499.43,466.49 499.86,460.75 500.28,467.77 500.71,475.68 501.14,475.68 501.57,471.44 502.00,471.44 502.43,470.83 502.86,470.83 503.29,475.06 503.72,471.50 504.14,476.23 504.57,483.52 505.00,483.52 505.43,476.81 505.86,482.69 506.29,496.95 506.72,498.24 507.15,503.82 507.58,503.82 508.00,503.09 508.43,507.33 508.86,520.85 509.29,519.79 509.72,528.49 510.15,530.96 510.58,530.96 511.01,539.43 511.44,532.43 511.86,532.43 512.29,538.86 512.72,536.31 513.15,526.46 513.58,523.95 514.01,512.07 514.44,514.79 514.87,495.11 515.30,496.48 515.72,495.09 516.15,482.27 516.58,478.03 517.01,466.98 517.44,477.67 517.87,473.43 518.30,461.80 518.73,466.03 519.16,470.27 519.58,475.03 520.01,464.06 520.44,466.40 520.87,473.73 521.30,483.66 521.73,492.06 522.16,486.51 522.59,496.26 523.02,496.29 523.44,496.36 523.87,498.28 524.30,507.20 524.73,507.74 525.16,506.64 525.59,506.64 526.02,502.83 526.45,485.66 526.88,483.69 527.30,478.56 527.73,486.18 528.16,487.23 528.59,487.01 529.02,488.65 529.45,501.09 529.88,480.74 530.31,479.25 530.74,488.28 531.16,482.72 531.59,487.71 532.02,495.10 532.45,492.14 532.88,490.54 533.31,501.57 533.74,489.64 534.17,492.74 534.60,497.78 535.02,495.55 535.45,495.55 535.88,482.79 536.31,476.07 536.74,472.78 537.17,477.43 537.60,481.18 538.03,466.41 538.46,467.82 538.88,472.02 539.31,472.02 539.74,462.04 540.17,472.41 540.60,464.55 541.03,456.75 541.46,472.33 541.89,478.07 542.32,474.93 542.74,485.42 543.17,494.84 543.60,494.80 544.03,509.28 544.46,528.68 544.89,528.68 545.32,518.39 545.75,515.25 546.18,520.16 546.60,519.54 547.03,524.77 547.46,508.64 547.89,513.99 548.32,518.22 548.75,518.22 549.18,531.24 549.61,531.24 550.04,533.38 550.46,548.71 550.89,547.47 551.32,551.71 551.75,554.79 552.18,550.56 552.61,543.15 553.04,537.98 553.47,542.14 553.89,545.54 554.32,551.70 554.75,548.50 555.18,550.62 555.61,543.02 556.04,557.16 556.47,565.34 556.90,561.11 557.33,556.88 557.75,552.21 558.18,547.19 558.61,544.36 559.04,544.24 559.47,542.37 559.90,539.88 560.33,519.06 560.76,529.95 561.19,532.61 561.61,530.01 562.04,521.98 562.47,517.42 562.90,505.08 563.33,508.02 563.76,517.66 564.19,519.96 564.62,501.55 565.05,507.43 565.47,514.25 565.90,494.73 566.33,490.45 566.76,486.21 567.19,479.25 567.62,479.25 568.05,481.16 568.48,480.79 568.91,469.67 569.33,469.09 569.76,467.61 570.19,463.45 570.62,480.43 571.05,488.34 571.48,487.12 571.91,482.89 572.34,479.93 572.77,482.30 573.19,483.00 573.62,482.17 574.05,479.84 574.48,488.46 574.91,486.15 575.34,490.38 575.77,493.04 576.20,486.44 576.63,480.53 577.05,478.67 577.48,474.43 577.91,478.17 578.34,478.09 578.77,470.68 579.20,458.94 579.63,465.69 580.06,466.27 580.49,457.28 580.91,454.90 581.34,461.02 581.77,468.92 582.20,468.44 582.63,464.21 583.06,456.00 583.49,456.99 583.92,473.82 584.35,471.18 584.77,473.23 585.20,480.42 585.63,476.17 586.06,476.40 586.49,473.04 586.92,469.22 587.35,459.55 587.78,459.19 588.21,472.82 588.63,470.97 589.06,478.77 589.49,486.28 589.92,477.89 590.35,476.99 590.78,471.38 591.21,475.45 591.64,465.46 592.07,453.01 592.49,453.56 592.92,449.09 593.35,448.86 593.78,459.24 594.21,472.18 594.64,472.98 595.07,487.64 595.50,486.98 595.93,482.30 596.35,478.81 596.78,476.20 597.21,471.81 597.64,483.29 598.07,474.75 598.50,458.48 598.93,466.95 599.36,470.05 599.79,472.34 600.21,477.40 600.64,482.80 601.07,487.03 601.50,491.25 601.93,499.65 602.36,503.11 602.79,510.92 603.22,502.81 603.65,499.81 604.07,487.40 604.50,491.27 604.93,505.55 605.36,496.00 605.79,500.32 606.22,506.00 606.65,509.22 607.08,494.02 607.51,491.45 607.93,483.65 608.36,479.26 608.79,463.78 609.22,461.81 609.65,453.72 610.08,463.84 610.51,456.77 610.94,459.77 611.37,453.21 611.79,435.87 612.22,429.28 612.65,431.41 613.08,436.16 613.51,427.93 613.94,431.37 614.37,446.79 614.80,450.39 615.23,456.28 615.65,463.51 616.08,457.46 616.51,456.07 616.94,468.34 617.37,450.38 617.80,457.27 618.23,466.92 618.66,465.39 619.09,459.96 619.51,471.66 619.94,469.90 620.37,458.05 620.80,453.90 621.23,459.81 621.66,436.54 622.09,433.82 622.52,431.52 622.95,439.59 623.37,430.76 623.80,438.83 624.23,436.91 624.66,417.41 625.09,405.68 625.52,406.18 625.95,381.64 626.38,381.74 626.81,394.35 627.23,409.99 627.66,414.46 628.09,420.25 628.52,420.51 628.95,412.03 629.38,419.43 629.81,426.57 630.24,427.65 630.67,430.43 631.09,433.69 631.52,438.57 631.95,438.74 632.38,442.54 632.81,444.63 633.24,454.98 633.67,457.57 634.10,444.79 634.53,445.40 634.95,448.63 635.38,448.71 635.81,445.00 636.24,438.87 636.67,425.02 637.10,431.60 637.53,432.85 637.96,435.54 638.39,434.66 638.81,439.26 639.24,448.34 639.67,447.36 640.10,452.02 640.53,462.53 640.96,463.40 641.39,468.57 641.82,456.47 642.25,453.43 642.67,442.51 643.10,441.66 643.53,446.07 643.96,438.44 644.39,440.36 644.82,443.08 645.25,442.63 645.68,450.77 646.11,450.03 646.53,449.60 646.96,454.07 647.39,460.26 647.82,456.67 648.25,457.42 648.68,454.16 649.11,445.93 649.54,443.68 649.96,455.88 650.39,457.31 650.82,454.77 651.25,469.93 651.68,471.09 652.11,475.55 652.54,464.24 652.97,460.81 653.40,453.63 653.82,449.59 654.25,452.51 654.68,445.75 655.11,452.61 655.54,449.88 655.97,456.63 656.40,461.96 656.83,457.47 657.26,442.46 657.68,448.94 658.11,448.22 658.54,451.14 658.97,441.18 659.40,445.85 659.83,454.35 660.26,440.83 660.69,442.18 661.12,449.98 661.54,453.30 661.97,443.17 662.40,452.11 662.83,444.18 663.26,446.45 663.69,465.20 664.12,459.96 664.55,475.60 664.98,472.50 665.40,473.40 665.83,473.10 666.26,453.96 666.69,457.76 667.12,470.31 667.55,475.33 667.98,480.96 668.41,477.45 668.84,465.43 669.26,457.48 669.69,445.15 670.12,449.17 670.55,447.08 670.98,442.33 671.41,431.98 671.84,420.46 672.27,423.98 672.70,426.04 673.12,410.23 673.55,408.93 673.98,416.59 674.41,416.51 674.84,413.50 675.27,410.30 675.70,420.64 676.13,419.12 676.56,428.22 676.98,422.12 677.41,429.73 677.84,429.64 678.27,430.56 678.70,431.02 679.13,426.79 679.56,427.76 679.99,434.18 680.42,438.21 680.84,444.15 681.27,428.88 681.70,426.34 682.13,428.74 682.56,425.56 682.99,433.36 683.42,434.62 683.85,435.55 684.28,430.82 684.70,436.38 685.13,434.13 685.56,436.50 685.99,423.70 686.42,418.28 686.85,413.88 687.28,411.67 687.71,411.27 688.14,422.03 688.56,436.47 688.99,439.95 689.42,444.79 689.85,442.93 690.28,452.69 690.71,459.61 691.14,449.80 691.57,450.53 692.00,463.68 692.42,461.60 692.85,455.28 693.28,460.99 693.71,468.79 694.14,480.21 694.57,480.21 695.00,480.51 695.43,477.24 695.86,480.01 696.28,468.30 696.71,453.51 697.14,456.10 697.57,455.37 698.00,459.60 698.43,463.13 698.86,471.60 699.29,475.85 699.72,473.39 700.14,471.40 700.57,470.63 701.00,461.51 701.43,453.57 701.86,435.94 702.29,426.45 702.72,434.89 703.15,432.68 703.58,425.63 704.00,424.71 704.43,424.61 704.86,428.31 705.29,419.02 705.72,411.63 706.15,407.73 706.58,424.12 707.01,415.05 707.44,415.44 707.86,419.46 708.29,438.09 708.72,433.68 709.15,449.97 709.58,453.59 710.01,453.02 710.44,442.25 710.87,448.02 711.30,455.16 711.72,466.07 712.15,481.62 712.58,465.00 713.01,453.15 713.44,447.85 713.87,422.02 714.30,417.78 714.73,411.70 715.16,413.33 715.58,414.09 716.01,409.35 716.44,401.57 716.87,400.17 717.30,396.98 717.73,391.29 718.16,376.86 718.59,367.51 719.02,361.65 719.44,363.43 719.87,357.90 720.30,366.37 720.73,358.32 721.16,348.70 721.59,334.63 722.02,335.75 722.45,338.90 722.88,340.60 723.30,351.07 723.73,358.45 724.16,369.85 724.59,356.87 725.02,361.96 725.45,375.32 725.88,376.47 726.31,393.11 726.74,389.60 727.16,413.90 727.59,418.48 728.02,424.96 728.45,428.14 728.88,416.40 729.31,429.24 729.74,430.72 730.17,429.11 730.60,421.13 731.02,424.44 731.45,429.90 731.88,435.32 732.31,441.07 732.74,445.79 733.17,441.31 733.60,431.06 734.03,432.20 734.46,428.88 734.88,422.66 735.31,408.37 735.74,407.02 736.17,412.86 736.60,398.48 737.03,400.62 737.46,403.48 737.89,423.86 738.32,421.69 738.74,424.44 739.17,417.58 739.60,413.83 740.03,412.27 740.46,412.70 740.89,406.69 741.32,413.40 741.75,403.58 742.18,405.67 742.60,405.29 743.03,420.69 743.46,421.87 743.89,393.28 744.32,391.74 744.75,368.38 745.18,368.67 745.61,364.89 746.04,361.02 746.46,357.94 746.89,352.42 747.32,353.68 747.75,349.92 748.18,356.42 748.61,344.81 749.04,333.49 749.47,332.18 749.89,350.63 750.32,327.69 750.75,339.43 751.18,346.22 751.61,344.17 752.04,348.06 752.47,361.83 752.90,358.66 753.33,372.85 753.75,373.56 754.18,383.91 754.61,374.70 755.04,383.95 755.47,382.22 755.90,386.36 756.33,374.98 756.76,383.44 757.19,369.60 757.61,372.40 758.04,384.53 758.47,386.59 758.90,376.15 759.33,381.53 759.76,367.32 760.19,374.84 760.62,377.99 761.05,395.94 761.47,405.93 761.90,399.06 762.33,392.10 762.76,389.54 763.19,392.85 763.62,397.70 764.05,391.58 764.48,391.07 764.91,380.63 765.33,387.26 765.76,394.45 766.19,389.01 766.62,380.08 767.05,374.79 767.48,375.43 767.91,380.12 768.34,393.08 768.77,394.27 769.19,402.24 769.62,414.59 770.05,404.78 770.48,398.37 770.91,396.13 771.34,409.03 771.77,413.67 772.20,397.24 772.63,398.82 773.05,393.85 773.48,389.62 773.91,402.59 774.34,388.21 774.77,392.25 775.20,385.18 775.63,392.66 776.06,387.01 776.49,390.74 776.91,369.40 777.34,363.47 777.77,373.80 778.20,353.97 778.63,370.68 779.06,359.64 779.49,352.06 779.92,347.30 780.35,343.14 780.77,344.64 781.20,348.60 781.63,354.04 782.06,354.11 782.49,363.76 782.92,372.76 783.35,368.74 783.78,365.82 784.21,356.84 784.63,354.86 785.06,358.85 785.49,361.34 785.92,360.06 786.35,356.12 786.78,346.81 787.21,346.45 787.64,340.61 788.07,352.67 788.49,336.82 788.92,334.80 789.35,357.64 789.78,348.03 790.21,346.41 790.64,347.02 791.07,336.54 791.50,347.68 791.93,356.61 792.35,347.53 792.78,339.79 793.21,327.28 793.64,334.07 794.07,360.81 794.50,334.27 794.93,342.44 795.36,352.96 795.79,353.21 796.21,363.36 796.64,344.96 797.07,351.51 797.50,350.68 797.93,366.73 798.36,363.10 798.79,352.66 799.22,336.61 799.65,334.63 800.07,332.23 800.50,337.40 800.93,336.57 801.36,347.87 801.79,359.42 802.22,352.48 802.65,365.68 803.08,367.28 803.51,367.25 803.93,374.86 804.36,397.29 804.79,410.23 805.22,415.81 805.65,424.90 806.08,421.16 806.51,436.61 806.94,427.65 807.37,433.99 807.79,432.71 808.22,439.99 808.65,451.55 809.08,433.96 809.51,423.49 809.94,423.99 810.37,410.38 810.80,400.75 811.23,417.40 811.65,415.69 812.08,421.38 812.51,400.64 812.94,411.68 813.37,397.43 813.80,393.99 814.23,380.16 814.66,375.84 815.09,379.05 815.51,381.47 815.94,377.17 816.37,381.59 816.80,371.99 817.23,345.61 817.66,341.59 818.09,329.44 818.52,332.25 818.95,339.75 819.37,319.70 819.80,329.02 820.23,334.93 820.66,340.04 821.09,336.41 821.52,312.03 821.95,312.66 822.38,314.01 822.81,321.47 823.23,328.10 823.66,347.42 824.09,342.99 824.52,345.40 824.95,357.34 825.38,337.59 825.81,337.17 826.24,342.65 826.67,357.63 827.09,337.53 827.52,329.17 827.95,308.18 828.38,298.69 828.81,309.21 829.24,305.55 829.67,307.98 830.10,311.78 830.53,309.18 830.95,294.80 831.38,309.96 831.81,317.04 832.24,342.09 832.67,335.60 833.10,337.78 833.53,319.55 833.96,306.98 834.39,311.82 834.81,299.07 835.24,279.62 835.67,270.33 836.10,280.99 836.53,285.07 836.96,295.87 837.39,304.77 837.82,301.31 838.25,309.39 838.67,305.51 839.10,310.16 839.53,322.50 839.96,344.71 840.39,336.96 840.82,335.70 841.25,308.53 841.68,305.17 842.11,303.66 842.53,302.53 842.96,297.92 843.39,310.92 843.82,288.72 844.25,274.30 844.68,279.66 845.11,277.51 845.54,289.25 845.96,287.64 846.39,287.59 846.82,287.14 847.25,286.85 847.68,284.59 848.11,285.21 848.54,277.06 848.97,273.39 849.40,271.98 849.82,258.03 850.25,249.50 850.68,243.59 851.11,243.05 851.54,243.11 851.97,245.26 852.40,264.26 852.83,256.43 853.26,270.83 853.68,261.57 854.11,271.08 854.54,280.65 854.97,289.06 855.40,293.61 855.83,326.40 856.26,327.66 856.69,336.51 857.12,333.78 857.54,325.72 857.97,321.11 858.40,328.86 858.83,326.41 859.26,304.98 859.69,300.60 860.12,289.37 860.55,293.32 860.98,301.44 861.40,285.85 861.83,285.00 862.26,283.07 862.69,281.71 863.12,263.06 863.55,250.25 863.98,248.79 864.41,252.17 864.84,247.33 865.26,251.65 865.69,262.11 866.12,247.79 866.55,253.60 866.98,267.44 867.41,269.16 867.84,259.53 868.27,280.59 868.70,264.44 869.12,277.72 869.55,291.81 869.98,284.29 870.41,283.70 870.84,271.66 871.27,287.88 871.70,297.80 872.13,318.65 872.56,303.82 872.98,302.06 873.41,296.31 873.84,292.84 874.27,303.51 874.70,313.11 875.13,312.72 875.56,316.17 875.99,327.80 876.42,309.83 876.84,292.15 877.27,307.41 877.70,311.22 878.13,316.98 878.56,314.33 878.99,302.82 879.42,311.14 879.85,307.70 880.28,303.71 880.70,303.82 881.13,310.59 881.56,310.78 881.99,320.44 882.42,322.89 882.85,322.50 883.28,331.94 883.71,337.28 884.14,353.91 884.56,360.83 884.99,378.52 885.42,388.88 885.85,388.32 886.28,402.60 886.71,408.52 887.14,397.23 887.57,384.46 888.00,363.19 888.42,357.08 888.85,345.56 889.28,318.97 889.71,302.70 890.14,292.86 890.57,277.83 891.00,270.47 891.43,271.11 891.86,281.19 892.28,280.23 892.71,282.90 893.14,288.66 893.57,300.16 894.00,307.04 894.43,330.29 894.86,335.67 895.29,354.88 895.72,338.80 896.14,347.70 896.57,353.15 897.00,342.05 897.43,330.74 897.86,324.42 898.29,326.07 898.72,318.33 899.15,296.09 899.58,282.02 900.00,287.17 900.43,285.16 900.86,273.66 901.29,275.40 901.72,274.31 902.15,269.49 902.58,264.84 903.01,272.65 903.44,277.64 903.86,277.62 904.29,311.56 904.72,300.36 905.15,299.79 905.58,308.14 906.01,318.23 906.44,327.55 906.87,322.11 907.30,334.26 907.72,317.10 908.15,322.68 908.58,317.57 909.01,285.75 909.44,280.74 909.87,257.46 910.30,248.56 910.73,248.95 911.16,254.03 911.58,244.27 912.01,260.49 912.44,259.89 912.87,272.63 913.30,256.09 913.73,254.57 914.16,265.07 914.59,262.31 915.02,266.18 915.44,272.54 915.87,283.10 916.30,270.16 916.73,268.91 917.16,282.21 917.59,279.75 918.02,276.75 918.45,272.94 918.88,272.34 919.30,273.74 919.73,261.29 920.16,271.69 920.59,259.77 921.02,263.28 921.45,268.48 921.88,282.33 922.31,289.49 922.74,288.70 923.16,279.14 923.59,284.35 924.02,270.83 924.45,252.57 924.88,245.09 925.31,222.42 925.74,238.84 926.17,247.94 926.60,243.14 927.02,238.90 927.45,246.62 927.88,256.77 928.31,267.25 928.74,270.64 929.17,271.97 929.60,284.54 930.03,264.95 930.46,263.76 930.88,264.12 931.31,266.71 931.74,246.53 932.17,259.00 932.60,261.69 933.03,260.71 933.46,253.42 933.89,230.01 934.32,245.21 934.74,254.72 935.17,252.63 935.60,237.10 936.03,236.80 936.46,248.72 936.89,247.87 937.32,259.04 937.75,276.11 938.18,271.69 938.60,273.92 939.03,272.65 939.46,276.02 939.89,291.10 940.32,291.48 940.75,306.54 941.18,299.30 941.61,301.05 942.04,286.06 942.46,285.88 942.89,279.00 943.32,282.41 943.75,288.02 944.18,264.62 944.61,245.44 945.04,260.91 945.47,257.13 945.89,254.19 946.32,258.64 946.75,274.62 947.18,270.02 947.61,255.20 948.04,262.97 948.47,275.49 948.90,257.59 949.33,257.84 949.75,276.72 950.18,269.89 950.61,251.52 951.04,253.19 951.47,270.55 951.90,266.41 952.33,249.52 952.76,254.72 953.19,266.35 953.61,254.35 954.04,254.45 954.47,264.54 954.90,248.23 955.33,260.32 955.76,262.61 956.19,267.05 956.62,261.90 957.05,244.60 957.47,248.22 957.90,258.50 958.33,249.04 958.76,256.03 959.19,257.89 959.62,270.93 960.05,269.73 960.48,280.87 960.91,298.47 961.33,297.98 961.76,298.23 962.19,277.28 962.62,272.21 963.05,269.11 963.48,277.76 963.91,281.76 964.34,273.44 964.77,281.97 965.19,275.35 965.62,298.60 966.05,289.67 966.48,289.22 966.91,300.24 967.34,296.96 967.77,299.32 968.20,296.87 968.63,299.89 969.05,271.76 969.48,255.35 969.91,249.06 970.34,245.21 970.77,248.69 971.20,206.52 971.63,205.30 972.06,221.21 972.49,221.60 972.91,237.05 973.34,244.69 973.77,252.58 974.20,249.96 974.63,248.81 975.06,249.27 975.49,265.48 975.92,257.35 976.35,258.11 976.77,250.98 977.20,249.96 977.63,251.71 978.06,271.22 978.49,280.32 978.92,281.82 979.35,271.79 979.78,263.30 980.21,257.47 980.63,241.40 981.06,233.08 981.49,236.74 981.92,238.06 982.35,237.56 982.78,230.77 983.21,237.15 983.64,250.13 984.07,255.19 984.49,250.16 984.92,263.34 985.35,277.13 985.78,282.00 986.21,283.49 986.64,285.87 987.07,291.29 987.50,286.05 987.93,241.36 988.35,237.45 988.78,239.71 989.21,238.52 989.64,218.05 990.07,204.31 990.50,208.66 990.93,208.84 991.36,212.37 991.79,196.05 992.21,199.69 992.64,208.56 993.07,208.11 993.50,231.20 993.93,230.93 994.36,241.23 994.79,236.01 995.22,230.90 995.65,235.54 996.07,247.32 996.50,236.76 996.93,229.74 997.36,239.79 997.79,245.42 998.22,248.86 998.65,259.53 999.08,257.03 999.51,251.84 999.93,254.55 1000.36,252.98 1000.79,266.63 1001.22,252.08 1001.65,257.56 1002.08,249.77 1002.51,247.24 1002.94,233.18 1003.37,227.73 1003.79,216.80 1004.22,194.53 1004.65,198.74 1005.08,193.09 1005.51,203.04 1005.94,202.41 1006.37,210.79 1006.80,220.49 1007.23,232.84 1007.65,227.02 1008.08,236.24 1008.51,221.28 1008.94,236.79 1009.37,231.09 1009.80,209.99 1010.23,217.06 1010.66,211.64 1011.09,204.56 1011.51,218.67 1011.94,230.67 1012.37,221.78 1012.80,215.78 1013.23,235.71 1013.66,252.73 1014.09,262.48 1014.52,256.81 1014.95,243.46 1015.37,235.87 1015.80,249.12 1016.23,260.48 1016.66,231.88 1017.09,219.43 1017.52,236.82 1017.95,232.08 1018.38,236.52 1018.81,242.22 1019.23,228.38 1019.66,228.45 1020.09,198.51 1020.52,199.07 1020.95,204.08 1021.38,192.53 1021.81,186.70 1022.24,210.84 1022.67,204.81 1023.09,206.80 1023.52,213.00 1023.95,203.01 1024.38,200.56 1024.81,179.59 1025.24,175.03 1025.67,163.38 1026.10,161.83 1026.53,174.32 1026.95,185.54 1027.38,191.09 1027.81,186.75 1028.24,202.73 1028.67,197.23 1029.10,205.16 1029.53,203.45 1029.96,204.65 1030.39,215.08 1030.81,207.30 1031.24,200.44 1031.67,202.19 1032.10,195.86 1032.53,196.36 1032.96,219.10 1033.39,219.00 1033.82,212.68 1034.25,219.28 1034.67,230.68 1035.10,220.28 1035.53,214.49 1035.96,220.64 1036.39,227.30 1036.82,235.56 1037.25,238.52 1037.68,241.06 1038.11,249.88 1038.53,234.28 1038.96,221.65 1039.39,213.94 1039.82,199.89 1040.25,180.47 1040.68,180.00 1041.11,195.93 1041.54,176.16 1041.96,202.94 1042.39,205.78 1042.82,208.98 1043.25,191.27 1043.68,184.85 1044.11,173.59 1044.54,188.68 1044.97,187.84 1045.40,194.13 1045.82,217.01 1046.25,224.39 1046.68,216.25 1047.11,193.94 1047.54,188.45 1047.97,175.10 1048.40,171.70 1048.83,181.24 1049.26,180.12 1049.68,181.50 1050.11,162.70 1050.54,156.65 1050.97,164.45 1051.40,156.79 1051.83,166.05 1052.26,178.15 1052.69,175.79 1053.12,178.43 1053.54,184.27 1053.97,183.20 1054.40,193.01 1054.83,176.48 1055.26,185.46 1055.69,183.94 1056.12,184.03 1056.55,166.09 1056.98,158.47 1057.40,149.47 1057.83,150.76 1058.26,152.43 1058.69,170.63 1059.12,180.37 1059.55,190.98 1059.98,174.54 1060.41,186.67 1060.84,195.71 1061.26,177.23 1061.69,177.21 1062.12,171.91 1062.55,177.40 1062.98,191.64 1063.41,182.98 1063.84,195.37 1064.27,174.08 1064.70,143.63 1065.12,157.12 1065.55,173.08 1065.98,172.68 1066.41,190.59 1066.84,193.06 1067.27,179.72 1067.70,157.02 1068.13,156.46 1068.56,155.33 1068.98,159.02 1069.41,172.43 1069.84,177.14 1070.27,173.89 1070.70,178.32 1071.13,182.71 1071.56,170.91 1071.99,160.82 1072.42,158.45 1072.84,140.56 1073.27,138.41 1073.70,160.10 1074.13,175.91 1074.56,187.12 1074.99,171.20 1075.42,157.56 1075.85,175.63 1076.28,187.39 1076.70,198.55 1077.13,197.58 1077.56,190.16 1077.99,139.47 1078.42,147.68 1078.85,157.89 1079.28,156.54 1079.71,160.60 1080.14,165.81 1080.56,167.98 1080.99,162.16 1081.42,166.34 1081.85,166.31 1082.28,141.21 1082.71,155.31 1083.14,142.26 1083.57,146.26 1084.00,142.75 1084.42,143.02 1084.85,158.48 1085.28,152.43 1085.71,162.44 1086.14,150.88 1086.57,161.62 1087.00,166.65 1087.43,177.19 1087.86,190.97 1088.28,186.45 1088.71,167.71 1089.14,156.68 1089.57,161.07 1090.00,171.10" />
<polyline fill="none" stroke="#2158a8" stroke-width="3.0" opacity="1.0" points="153.32,533.20 153.75,533.99 154.18,533.85 154.60,533.65 155.03,533.55 155.46,533.28 155.89,533.18 156.32,533.19 156.75,533.14 157.18,533.16 157.61,533.35 158.04,533.63 158.46,533.75 158.89,533.79 159.32,533.85 159.75,533.81 160.18,533.76 160.61,533.69 161.04,533.64 161.47,533.48 161.89,533.29 162.32,533.11 162.75,532.93 163.18,532.75 163.61,532.57 164.04,532.48 164.47,532.45 164.90,532.35 165.33,532.23 165.75,531.92 166.18,531.66 166.61,531.35 167.04,531.00 167.47,530.59 167.90,530.17 168.33,529.89 168.76,529.61 169.19,529.30 169.61,529.04 170.04,528.71 170.47,528.45 170.90,528.19 171.33,527.90 171.76,527.59 172.19,527.20 172.62,526.86 173.05,526.48 173.47,526.11 173.90,525.63 174.33,525.13 174.76,524.73 175.19,524.32 175.62,523.96 176.05,523.60 176.48,523.29 176.91,523.01 177.33,522.67 177.76,522.30 178.19,522.05 178.62,521.84 179.05,521.67 179.48,521.62 179.91,521.44 180.34,521.31 180.77,521.19 181.19,521.01 181.62,520.99 182.05,520.87 182.48,520.72 182.91,520.61 183.34,520.47 183.77,520.36 184.20,520.30 184.63,520.17 185.05,520.12 185.48,520.02 185.91,519.85 186.34,519.67 186.77,519.60 187.20,519.52 187.63,519.42 188.06,519.36 188.49,519.21 188.91,518.90 189.34,518.73 189.77,518.47 190.20,518.37 190.63,518.32 191.06,518.30 191.49,518.27 191.92,518.41 192.35,518.62 192.77,518.90 193.20,519.22 193.63,519.44 194.06,519.56 194.49,519.69 194.92,519.85 195.35,520.02 195.78,520.18 196.21,520.34 196.63,520.53 197.06,520.74 197.49,520.93 197.92,521.15 198.35,521.35 198.78,521.63 199.21,521.83 199.64,521.91 200.07,521.98 200.49,521.93 200.92,521.67 201.35,521.46 201.78,521.31 202.21,521.05 202.64,520.83 203.07,520.58 203.50,520.36 203.93,520.17 204.35,520.12 204.78,520.07 205.21,520.04 205.64,519.98 206.07,519.93 206.50,519.72 206.93,519.50 207.36,519.25 207.79,519.17 208.21,519.16 208.64,519.22 209.07,519.41 209.50,519.61 209.93,519.76 210.36,520.01 210.79,520.21 211.22,520.38 211.65,520.59 212.07,520.72 212.50,520.88 212.93,521.18 213.36,521.55 213.79,521.77 214.22,522.03 214.65,522.25 215.08,522.41 215.51,522.51 215.93,522.66 216.36,522.81 216.79,522.96 217.22,523.12 217.65,523.20 218.08,523.33 218.51,523.37 218.94,523.32 219.37,523.29 219.79,523.22 220.22,523.27 220.65,523.28 221.08,523.25 221.51,523.15 221.94,523.01 222.37,522.74 222.80,522.40 223.23,522.02 223.65,521.71 224.08,521.58 224.51,521.45 224.94,521.38 225.37,521.29 225.80,521.24 226.23,521.22 226.66,521.23 227.09,521.28 227.51,521.38 227.94,521.41 228.37,521.48 228.80,521.72 229.23,522.06 229.66,522.33 230.09,522.71 230.52,523.19 230.95,523.63 231.37,524.23 231.80,524.85 232.23,525.43 232.66,526.05 233.09,526.42 233.52,526.90 233.95,527.48 234.38,527.87 234.81,528.12 235.23,528.26 235.66,528.32 236.09,528.42 236.52,528.54 236.95,528.72 237.38,528.94 237.81,528.94 238.24,528.93 238.67,528.84 239.09,528.89 239.52,528.76 239.95,528.68 240.38,528.65 240.81,528.56 241.24,528.50 241.67,528.39 242.10,528.31 242.53,528.30 242.95,528.19 243.38,528.26 243.81,528.50 244.24,528.82 244.67,529.15 245.10,529.47 245.53,529.78 245.96,530.22 246.39,530.59 246.81,531.04 247.24,531.47 247.67,531.79 248.10,532.24 248.53,532.47 248.96,532.89 249.39,533.50 249.82,534.06 250.25,534.55 250.67,535.01 251.10,535.40 251.53,535.83 251.96,536.07 252.39,536.35 252.82,536.60 253.25,536.85 253.68,537.19 254.11,537.52 254.53,537.75 254.96,538.04 255.39,538.18 255.82,538.27 256.25,538.29 256.68,538.44 257.11,538.39 257.54,538.43 257.96,538.50 258.39,538.48 258.82,538.53 259.25,538.64 259.68,538.85 260.11,539.03 260.54,539.31 260.97,539.58 261.40,539.84 261.82,540.14 262.25,540.46 262.68,540.66 263.11,540.71 263.54,540.76 263.97,540.77 264.40,540.79 264.83,540.82 265.26,540.94 265.68,541.27 266.11,541.68 266.54,542.04 266.97,542.31 267.40,542.55 267.83,542.71 268.26,542.83 268.69,542.76 269.12,542.64 269.54,542.42 269.97,542.12 270.40,541.94 270.83,541.72 271.26,541.55 271.69,541.37 272.12,541.04 272.55,540.85 272.98,540.60 273.40,540.27 273.83,539.86 274.26,539.41 274.69,538.83 275.12,538.24 275.55,537.69 275.98,537.19 276.41,536.61 276.84,535.95 277.26,535.43 277.69,534.87 278.12,534.42 278.55,534.02 278.98,533.48 279.41,532.89 279.84,532.35 280.27,531.70 280.70,531.18 281.12,530.67 281.55,530.21 281.98,529.65 282.41,529.25 282.84,528.77 283.27,528.21 283.70,527.72 284.13,527.17 284.56,526.57 284.98,526.01 285.41,525.47 285.84,525.00 286.27,524.41 286.70,523.88 287.13,523.35 287.56,522.74 287.99,522.21 288.42,521.71 288.84,521.13 289.27,520.59 289.70,519.98 290.13,519.34 290.56,518.79 290.99,518.12 291.42,517.69 291.85,517.12 292.28,516.55 292.70,516.08 293.13,515.66 293.56,515.21 293.99,514.83 294.42,514.50 294.85,514.21 295.28,513.93 295.71,513.69 296.14,513.35 296.56,512.96 296.99,512.55 297.42,512.23 297.85,511.92 298.28,511.71 298.71,511.48 299.14,511.33 299.57,511.17 300.00,511.11 300.42,511.12 300.85,511.17 301.28,511.22 301.71,511.23 302.14,511.18 302.57,511.15 303.00,511.15 303.43,511.02 303.86,510.74 304.28,510.48 304.71,510.30 305.14,510.05 305.57,509.97 306.00,509.96 306.43,509.95 306.86,510.03 307.29,510.11 307.72,510.16 308.14,510.16 308.57,509.98 309.00,509.79 309.43,509.56 309.86,509.16 310.29,508.83 310.72,508.51 311.15,508.23 311.58,508.11 312.00,507.96 312.43,507.79 312.86,507.66 313.29,507.38 313.72,507.18 314.15,506.96 314.58,506.62 315.01,506.26 315.44,505.80 315.86,505.28 316.29,504.76 316.72,504.29 317.15,503.85 317.58,503.53 318.01,503.18 318.44,502.81 318.87,502.52 319.30,502.15 319.72,501.79 320.15,501.41 320.58,501.04 321.01,500.75 321.44,500.57 321.87,500.49 322.30,500.43 322.73,500.34 323.16,500.39 323.58,500.48 324.01,500.45 324.44,500.47 324.87,500.42 325.30,500.35 325.73,500.35 326.16,500.30 326.59,500.38 327.02,500.44 327.44,500.65 327.87,500.87 328.30,501.15 328.73,501.50 329.16,501.86 329.59,502.15 330.02,502.35 330.45,502.54 330.88,502.74 331.30,502.93 331.73,503.08 332.16,503.11 332.59,503.18 333.02,503.28 333.45,503.49 333.88,503.71 334.31,504.01 334.74,504.31 335.16,504.54 335.59,504.82 336.02,505.07 336.45,505.30 336.88,505.39 337.31,505.44 337.74,505.47 338.17,505.47 338.60,505.44 339.02,505.50 339.45,505.54 339.88,505.60 340.31,505.61 340.74,505.60 341.17,505.65 341.60,505.74 342.03,505.77 342.46,505.84 342.88,505.97 343.31,505.98 343.74,505.83 344.17,505.77 344.60,505.66 345.03,505.52 345.46,505.31 345.89,505.04 346.32,504.83 346.74,504.78 347.17,504.74 347.60,504.62 348.03,504.50 348.46,504.42 348.89,504.30 349.32,504.36 349.75,504.47 350.18,504.55 350.60,504.64 351.03,504.76 351.46,504.88 351.89,504.86 352.32,504.86 352.75,504.97 353.18,504.99 353.61,505.09 354.04,505.20 354.46,505.32 354.89,505.57 355.32,505.87 355.75,506.19 356.18,506.51 356.61,506.81 357.04,507.03 357.47,507.37 357.89,507.78 358.32,508.23 358.75,508.57 359.18,508.87 359.61,509.23 360.04,509.69 360.47,510.14 360.90,510.65 361.33,511.26 361.75,511.86 362.18,512.61 362.61,513.49 363.04,514.30 363.47,515.11 363.90,515.77 364.33,516.39 364.76,516.96 365.19,517.64 365.61,518.29 366.04,518.81 366.47,519.11 366.90,519.52 367.33,519.96 367.76,520.50 368.19,520.99 368.62,521.34 369.05,521.65 369.47,521.90 369.90,522.11 370.33,522.34 370.76,522.48 371.19,522.58 371.62,522.40 372.05,522.23 372.48,521.96 372.91,521.77 373.33,521.63 373.76,521.47 374.19,521.31 374.62,521.21 375.05,521.21 375.48,521.29 375.91,521.33 376.34,521.23 376.77,521.09 377.19,520.90 377.62,520.70 378.05,520.46 378.48,520.14 378.91,519.71 379.34,519.22 379.77,518.89 380.20,518.52 380.63,518.26 381.05,517.96 381.48,517.72 381.91,517.52 382.34,517.31 382.77,517.09 383.20,516.87 383.63,516.59 384.06,516.22 384.49,515.80 384.91,515.38 385.34,514.96 385.77,514.55 386.20,514.14 386.63,513.92 387.06,513.76 387.49,513.55 387.92,513.47 388.35,513.44 388.77,513.46 389.20,513.52 389.63,513.50 390.06,513.57 390.49,513.70 390.92,513.79 391.35,513.86 391.78,513.91 392.21,513.90 392.63,513.83 393.06,513.86 393.49,513.73 393.92,513.58 394.35,513.44 394.78,513.35 395.21,513.37 395.64,513.36 396.07,513.47 396.49,513.59 396.92,513.69 397.35,513.80 397.78,513.87 398.21,513.93 398.64,513.96 399.07,514.01 399.50,514.01 399.93,514.06 400.35,514.11 400.78,514.16 401.21,514.21 401.64,514.35 402.07,514.51 402.50,514.64 402.93,514.72 403.36,514.89 403.79,515.06 404.21,515.10 404.64,515.06 405.07,514.91 405.50,514.50 405.93,514.02 406.36,513.54 406.79,513.14 407.22,512.65 407.65,512.13 408.07,511.61 408.50,511.14 408.93,510.75 409.36,510.47 409.79,510.23 410.22,509.95 410.65,509.61 411.08,509.42 411.51,509.31 411.93,509.32 412.36,509.36 412.79,509.42 413.22,509.46 413.65,509.52 414.08,509.55 414.51,509.83 414.94,510.12 415.37,510.43 415.79,510.73 416.22,511.11 416.65,511.55 417.08,511.94 417.51,512.37 417.94,512.81 418.37,513.05 418.80,513.21 419.23,513.37 419.65,513.58 420.08,513.68 420.51,513.78 420.94,513.91 421.37,513.96 421.80,514.25 422.23,514.54 422.66,514.87 423.09,515.22 423.51,515.54 423.94,516.02 424.37,516.47 424.80,516.80 425.23,517.13 425.66,517.37 426.09,517.65 426.52,517.92 426.95,518.24 427.37,518.59 427.80,519.07 428.23,519.54 428.66,519.96 429.09,520.46 429.52,520.84 429.95,521.30 430.38,521.73 430.81,522.07 431.23,522.50 431.66,522.94 432.09,523.27 432.52,523.53 432.95,523.82 433.38,524.07 433.81,524.37 434.24,524.56 434.67,524.75 435.09,524.86 435.52,524.83 435.95,524.60 436.38,524.58 436.81,524.55 437.24,524.51 437.67,524.57 438.10,524.48 438.53,524.35 438.95,524.14 439.38,523.89 439.81,523.64 440.24,523.42 440.67,523.11 441.10,522.83 441.53,522.57 441.96,522.35 442.39,522.00 442.81,521.81 443.24,521.64 443.67,521.48 444.10,521.37 444.53,521.30 444.96,521.32 445.39,521.33 445.82,521.28 446.25,521.13 446.67,520.88 447.10,520.73 447.53,520.66 447.96,520.55 448.39,520.52 448.82,520.61 449.25,520.80 449.68,520.92 450.11,521.06 450.53,521.37 450.96,521.61 451.39,521.80 451.82,521.93 452.25,522.14 452.68,522.34 453.11,522.59 453.54,522.85 453.96,523.05 454.39,523.19 454.82,523.36 455.25,523.48 455.68,523.57 456.11,523.57 456.54,523.53 456.97,523.51 457.40,523.53 457.82,523.57 458.25,523.68 458.68,523.74 459.11,523.74 459.54,523.72 459.97,523.70 460.40,523.58 460.83,523.37 461.26,523.22 461.68,523.12 462.11,523.06 462.54,523.00 462.97,522.97 463.40,523.03 463.83,523.12 464.26,523.20 464.69,523.15 465.12,523.10 465.54,522.96 465.97,522.82 466.40,522.61 466.83,522.23 467.26,521.79 467.69,521.31 468.12,520.83 468.55,520.42 468.98,520.14 469.40,519.97 469.83,519.83 470.26,519.67 470.69,519.46 471.12,519.25 471.55,518.99 471.98,518.65 472.41,518.36 472.84,517.93 473.26,517.64 473.69,517.32 474.12,517.02 474.55,516.78 474.98,516.61 475.41,516.58 475.84,516.62 476.27,516.68 476.70,516.68 477.12,516.74 477.55,516.66 477.98,516.58 478.41,516.50 478.84,516.55 479.27,516.53 479.70,516.53 480.13,516.52 480.56,516.51 480.98,516.52 481.41,516.54 481.84,516.60 482.27,516.65 482.70,516.69 483.13,516.63 483.56,516.63 483.99,516.63 484.42,516.53 484.84,516.44 485.27,516.67 485.70,516.81 486.13,516.90 486.56,516.95 486.99,516.91 487.42,516.94 487.85,516.94 488.28,517.00 488.70,517.04 489.13,517.00 489.56,517.09 489.99,517.13 490.42,517.20 490.85,517.28 491.28,517.30 491.71,517.26 492.14,517.09 492.56,516.94 492.99,516.74 493.42,516.45 493.85,516.15 494.28,515.65 494.71,515.15 495.14,514.75 495.57,514.35 496.00,513.96 496.42,513.55 496.85,513.12 497.28,512.63 497.71,512.03 498.14,511.42 498.57,510.82 499.00,510.25 499.43,509.73 499.86,509.14 500.28,508.55 500.71,507.98 501.14,507.44 501.57,506.87 502.00,506.29 502.43,505.66 502.86,505.00 503.29,504.44 503.72,503.91 504.14,503.40 504.57,502.95 505.00,502.55 505.43,502.08 505.86,501.66 506.29,501.31 506.72,500.97 507.15,500.77 507.58,500.55 508.00,500.38 508.43,500.27 508.86,500.29 509.29,500.34 509.72,500.53 510.15,500.81 510.58,501.20 511.01,501.70 511.44,502.19 511.86,502.59 512.29,503.01 512.72,503.37 513.15,503.63 513.58,503.84 514.01,503.94 514.44,504.14 514.87,504.15 515.30,504.20 515.72,504.25 516.15,504.13 516.58,503.95 517.01,503.56 517.44,503.23 517.87,502.83 518.30,502.26 518.73,501.60 519.16,500.91 519.58,500.33 520.01,499.63 520.44,499.10 520.87,498.59 521.30,498.30 521.73,498.09 522.16,497.87 522.59,497.74 523.02,497.62 523.44,497.45 523.87,497.32 524.30,497.32 524.73,497.29 525.16,497.25 525.59,497.22 526.02,497.22 526.45,497.03 526.88,496.84 527.30,496.69 527.73,496.56 528.16,496.31 528.59,495.99 529.02,495.68 529.45,495.52 529.88,495.19 530.31,494.79 530.74,494.40 531.16,493.89 531.59,493.42 532.02,493.12 532.45,492.75 532.88,492.39 533.31,492.11 533.74,491.76 534.17,491.55 534.60,491.42 535.02,491.29 535.45,491.19 535.88,491.00 536.31,490.74 536.74,490.45 537.17,490.44 537.60,490.49 538.03,490.33 538.46,490.15 538.88,489.96 539.31,489.77 539.74,489.53 540.17,489.47 540.60,489.42 541.03,489.31 541.46,489.38 541.89,489.46 542.32,489.55 542.74,489.79 543.17,490.06 543.60,490.25 544.03,490.59 544.46,491.16 544.89,491.74 545.32,492.21 545.75,492.66 546.18,493.11 546.60,493.59 547.03,494.07 547.46,494.32 547.89,494.63 548.32,495.04 548.75,495.40 549.18,495.74 549.61,496.07 550.04,496.37 550.46,496.81 550.89,497.26 551.32,497.70 551.75,498.04 552.18,498.35 552.61,498.50 553.04,498.57 553.47,498.68 553.89,498.74 554.32,498.93 554.75,499.09 555.18,499.21 555.61,499.28 556.04,499.58 556.47,500.00 556.90,500.49 557.33,500.91 557.75,501.48 558.18,501.99 558.61,502.48 559.04,503.10 559.47,503.74 559.90,504.47 560.33,504.89 560.76,505.45 561.19,506.16 561.61,506.80 562.04,507.32 562.47,507.74 562.90,508.15 563.33,508.57 563.76,509.01 564.19,509.37 564.62,509.46 565.05,509.67 565.47,509.85 565.90,509.84 566.33,509.78 566.76,509.66 567.19,509.38 567.62,509.09 568.05,508.84 568.48,508.58 568.91,508.25 569.33,508.08 569.76,507.92 570.19,507.77 570.62,507.71 571.05,507.72 571.48,507.73 571.91,507.67 572.34,507.46 572.77,507.47 573.19,507.51 573.62,507.45 574.05,507.42 574.48,507.43 574.91,507.34 575.34,507.32 575.77,507.35 576.20,507.19 576.63,507.10 577.05,506.96 577.48,506.73 577.91,506.55 578.34,506.38 578.77,506.26 579.20,506.09 579.63,506.02 580.06,505.91 580.49,505.67 580.91,505.55 581.34,505.48 581.77,505.45 582.20,505.42 582.63,505.44 583.06,505.27 583.49,505.20 583.92,505.37 584.35,505.36 584.77,505.31 585.20,505.36 585.63,505.27 586.06,505.09 586.49,504.87 586.92,504.47 587.35,503.78 587.78,503.08 588.21,502.63 588.63,502.18 589.06,501.77 589.49,501.44 589.92,500.97 590.35,500.65 590.78,500.23 591.21,499.80 591.64,499.27 592.07,498.49 592.49,497.71 592.92,496.87 593.35,495.87 593.78,494.99 594.21,494.19 594.64,493.37 595.07,492.75 595.50,492.18 595.93,491.63 596.35,490.99 596.78,490.30 597.21,489.50 597.64,488.85 598.07,488.09 598.50,487.25 598.93,486.34 599.36,485.39 599.79,484.50 600.21,483.71 600.64,483.01 601.07,482.41 601.50,481.88 601.93,481.44 602.36,481.04 602.79,480.75 603.22,480.59 603.65,480.29 604.07,479.84 604.50,479.45 604.93,479.29 605.36,479.07 605.79,479.02 606.22,479.00 606.65,478.92 607.08,478.66 607.51,478.56 607.93,478.32 608.36,477.97 608.79,477.66 609.22,477.37 609.65,477.05 610.08,476.90 610.51,476.67 610.94,476.46 611.37,476.18 611.79,475.84 612.22,475.44 612.65,475.08 613.08,474.81 613.51,474.28 613.94,473.72 614.37,473.31 614.80,472.99 615.23,472.75 615.65,472.56 616.08,472.31 616.51,472.05 616.94,471.93 617.37,471.55 617.80,471.26 618.23,471.03 618.66,470.75 619.09,470.49 619.51,470.40 619.94,470.31 620.37,470.15 620.80,469.90 621.23,469.72 621.66,469.38 622.09,469.13 622.52,468.79 622.95,468.52 623.37,468.25 623.80,468.09 624.23,467.85 624.66,467.34 625.09,466.71 625.52,466.13 625.95,465.39 626.38,464.63 626.81,463.84 627.23,463.23 627.66,462.64 628.09,462.04 628.52,461.48 628.95,460.84 629.38,460.30 629.81,459.87 630.24,459.56 630.67,459.27 631.09,458.88 631.52,458.55 631.95,458.15 632.38,457.71 632.81,457.38 633.24,457.16 633.67,457.02 634.10,456.72 634.53,456.52 634.95,456.47 635.38,456.42 635.81,456.38 636.24,456.28 636.67,455.94 637.10,455.54 637.53,455.13 637.96,454.61 638.39,454.09 638.81,453.66 639.24,453.35 639.67,453.07 640.10,452.87 640.53,452.66 640.96,452.55 641.39,452.65 641.82,452.54 642.25,452.38 642.67,452.08 643.10,451.72 643.53,451.35 643.96,450.87 644.39,450.36 644.82,449.79 645.25,449.19 645.68,448.59 646.11,448.06 646.53,447.56 646.96,447.22 647.39,446.91 647.82,446.43 648.25,446.04 648.68,445.58 649.11,444.98 649.54,444.32 649.96,443.94 650.39,443.60 650.82,443.31 651.25,443.22 651.68,443.29 652.11,443.43 652.54,443.53 652.97,443.50 653.40,443.47 653.82,443.37 654.25,443.36 654.68,443.46 655.11,443.69 655.54,443.88 655.97,444.08 656.40,444.42 656.83,444.69 657.26,444.64 657.68,444.63 658.11,444.55 658.54,444.42 658.97,444.26 659.40,444.16 659.83,444.02 660.26,443.92 660.69,443.77 661.12,443.60 661.54,443.48 661.97,443.31 662.40,443.12 662.83,442.86 663.26,442.74 663.69,442.86 664.12,442.86 664.55,443.25 664.98,443.64 665.40,444.06 665.83,444.39 666.26,444.62 666.69,444.81 667.12,445.15 667.55,445.72 667.98,446.48 668.41,447.19 668.84,448.03 669.26,448.79 669.69,449.29 670.12,449.69 670.55,450.01 670.98,450.23 671.41,450.35 671.84,450.43 672.27,450.48 672.70,450.47 673.12,450.30 673.55,450.08 673.98,449.91 674.41,449.69 674.84,449.44 675.27,449.12 675.70,448.88 676.13,448.52 676.56,448.22 676.98,448.00 677.41,447.84 677.84,447.65 678.27,447.47 678.70,447.33 679.13,447.21 679.56,447.24 679.99,447.26 680.42,447.32 680.84,447.40 681.27,447.34 681.70,447.21 682.13,447.02 682.56,446.80 682.99,446.61 683.42,446.33 683.85,446.06 684.28,445.68 684.70,445.48 685.13,445.28 685.56,445.22 685.99,445.04 686.42,444.77 686.85,444.52 687.28,444.23 687.71,443.92 688.14,443.71 688.56,443.57 688.99,443.47 689.42,443.42 689.85,443.31 690.28,443.23 690.71,443.26 691.14,443.18 691.57,443.15 692.00,443.33 692.42,443.50 692.85,443.50 693.28,443.54 693.71,443.68 694.14,443.78 694.57,443.87 695.00,443.92 695.43,444.05 695.86,444.24 696.28,444.39 696.71,444.43 697.14,444.46 697.57,444.56 698.00,444.63 698.43,444.76 698.86,444.91 699.29,445.05 699.72,445.21 700.14,445.50 700.57,445.72 701.00,445.85 701.43,445.87 701.86,445.82 702.29,445.63 702.72,445.43 703.15,445.35 703.58,445.19 704.00,444.93 704.43,444.65 704.86,444.50 705.29,444.17 705.72,443.84 706.15,443.45 706.58,443.04 707.01,442.59 707.44,441.99 707.86,441.46 708.29,441.11 708.72,440.71 709.15,440.67 709.58,440.63 710.01,440.46 710.44,440.13 710.87,439.80 711.30,439.58 711.72,439.58 712.15,439.82 712.58,440.02 713.01,440.06 713.44,440.07 713.87,439.87 714.30,439.73 714.73,439.64 715.16,439.53 715.58,439.41 716.01,439.40 716.44,439.33 716.87,439.17 717.30,438.97 717.73,438.75 718.16,438.41 718.59,437.88 719.02,437.31 719.44,436.66 719.87,436.02 720.30,435.38 720.73,434.67 721.16,433.85 721.59,432.89 722.02,431.98 722.45,431.09 722.88,430.15 723.30,429.28 723.73,428.43 724.16,427.83 724.59,427.14 725.02,426.47 725.45,425.97 725.88,425.40 726.31,424.99 726.74,424.53 727.16,424.36 727.59,424.18 728.02,424.09 728.45,424.00 728.88,423.93 729.31,424.04 729.74,424.21 730.17,424.38 730.60,424.48 731.02,424.50 731.45,424.44 731.88,424.39 732.31,424.36 732.74,424.38 733.17,424.27 733.60,423.99 734.03,423.81 734.46,423.59 734.88,423.18 735.31,422.65 735.74,422.17 736.17,421.69 736.60,420.98 737.03,420.19 737.46,419.42 737.89,418.85 738.32,418.30 738.74,417.74 739.17,417.23 739.60,416.84 740.03,416.40 740.46,415.97 740.89,415.44 741.32,414.95 741.75,414.27 742.18,413.56 742.60,412.88 743.03,412.38 743.46,411.89 743.89,411.21 744.32,410.59 744.75,409.91 745.18,409.33 745.61,408.63 746.04,407.92 746.46,407.24 746.89,406.52 747.32,405.81 747.75,405.03 748.18,404.40 748.61,403.73 749.04,402.99 749.47,402.07 749.89,401.43 750.32,400.55 750.75,399.75 751.18,398.83 751.61,397.93 752.04,396.91 752.47,396.00 752.90,395.05 753.33,394.36 753.75,393.61 754.18,392.90 754.61,391.99 755.04,391.01 755.47,390.18 755.90,389.52 756.33,388.79 756.76,388.40 757.19,387.92 757.61,387.53 758.04,387.24 758.47,386.96 758.90,386.63 759.33,386.43 759.76,386.10 760.19,385.88 760.62,385.75 761.05,385.94 761.47,386.32 761.90,386.70 762.33,386.98 762.76,387.30 763.19,387.57 763.62,387.96 764.05,388.39 764.48,388.95 764.91,389.40 765.33,389.88 765.76,390.42 766.19,390.80 766.62,391.02 767.05,391.07 767.48,391.25 767.91,391.44 768.34,391.61 768.77,391.79 769.19,391.88 769.62,392.13 770.05,392.04 770.48,391.84 770.91,391.55 771.34,391.36 771.77,391.33 772.20,391.01 772.63,390.69 773.05,390.34 773.48,390.03 773.91,389.81 774.34,389.39 774.77,388.96 775.20,388.40 775.63,387.87 776.06,387.33 776.49,386.92 776.91,386.30 777.34,385.64 777.77,385.15 778.20,384.61 778.63,384.25 779.06,383.71 779.49,383.25 779.92,382.72 780.35,382.11 780.77,381.32 781.20,380.59 781.63,379.89 782.06,379.25 782.49,378.75 782.92,378.36 783.35,377.92 783.78,377.51 784.21,376.94 784.63,376.46 785.06,375.99 785.49,375.55 785.92,374.94 786.35,374.28 786.78,373.82 787.21,373.37 787.64,373.09 788.07,372.93 788.49,372.65 788.92,372.39 789.35,372.38 789.78,372.34 790.21,372.27 790.64,372.24 791.07,372.04 791.50,372.07 791.93,372.30 792.35,372.45 792.78,372.34 793.21,372.34 793.64,372.29 794.07,372.43 794.50,372.33 794.93,372.28 795.36,372.19 795.79,372.13 796.21,372.04 796.64,371.75 797.07,371.43 797.50,371.19 797.93,371.02 798.36,370.82 798.79,370.49 799.22,370.10 799.65,369.62 800.07,369.24 800.50,368.89 800.93,368.41 801.36,368.03 801.79,367.86 802.22,367.57 802.65,367.55 803.08,367.48 803.51,367.37 803.93,367.16 804.36,367.07 804.79,367.18 805.22,367.42 805.65,367.77 806.08,368.06 806.51,368.45 806.94,368.81 807.37,369.23 807.79,369.76 808.22,370.28 808.65,370.85 809.08,371.30 809.51,371.74 809.94,372.23 810.37,372.58 810.80,372.79 811.23,373.03 811.65,373.24 812.08,373.43 812.51,373.29 812.94,373.36 813.37,373.35 813.80,373.33 814.23,373.04 814.66,372.67 815.09,372.48 815.51,372.31 815.94,372.14 816.37,372.06 816.80,371.76 817.23,371.33 817.66,370.82 818.09,370.27 818.52,369.66 818.95,369.19 819.37,368.48 819.80,368.08 820.23,367.79 820.66,367.45 821.09,367.28 821.52,366.69 821.95,366.22 822.38,365.84 822.81,365.58 823.23,365.43 823.66,365.46 824.09,365.40 824.52,365.32 824.95,365.35 825.38,365.09 825.81,364.73 826.24,364.47 826.67,364.39 827.09,364.20 827.52,363.94 827.95,363.43 828.38,362.81 828.81,362.30 829.24,361.79 829.67,361.40 830.10,361.06 830.53,360.74 830.95,360.16 831.38,359.90 831.81,359.72 832.24,359.56 832.67,359.44 833.10,359.35 833.53,359.08 833.96,358.78 834.39,358.42 834.81,357.85 835.24,357.17 835.67,356.47 836.10,356.01 836.53,355.52 836.96,354.87 837.39,354.58 837.82,354.17 838.25,353.73 838.67,353.25 839.10,352.72 839.53,352.50 839.96,352.43 840.39,352.29 840.82,351.98 841.25,351.43 841.68,350.96 842.11,350.63 842.53,350.31 842.96,349.97 843.39,349.70 843.82,349.22 844.25,348.49 844.68,347.69 845.11,346.94 845.54,346.18 845.96,345.38 846.39,344.58 846.82,343.71 847.25,342.60 847.68,341.34 848.11,340.04 848.54,338.56 848.97,337.08 849.40,335.44 849.82,333.74 850.25,331.90 850.68,330.00 851.11,328.03 851.54,325.95 851.97,324.06 852.40,322.47 852.83,320.80 853.26,319.40 853.68,318.01 854.11,316.54 854.54,315.19 854.97,313.87 855.40,312.80 855.83,311.95 856.26,311.25 856.69,310.68 857.12,310.21 857.54,309.71 857.97,309.13 858.40,308.60 858.83,308.10 859.26,307.33 859.69,306.62 860.12,306.05 860.55,305.57 860.98,305.29 861.40,304.83 861.83,304.28 862.26,303.91 862.69,303.44 863.12,302.72 863.55,301.82 863.98,300.95 864.41,300.35 864.84,299.70 865.26,299.07 865.69,298.48 866.12,297.68 866.55,296.74 866.98,295.98 867.41,295.22 867.84,294.24 868.27,293.67 868.70,292.94 869.12,292.30 869.55,291.64 869.98,291.10 870.41,290.65 870.84,290.29 871.27,290.18 871.70,290.06 872.13,290.19 872.56,290.15 872.98,290.06 873.41,289.93 873.84,289.91 874.27,289.84 874.70,289.80 875.13,289.51 875.56,289.31 875.99,289.22 876.42,289.12 876.84,288.97 877.27,288.93 877.70,289.05 878.13,289.42 878.56,289.86 878.99,290.08 879.42,290.34 879.85,290.46 880.28,290.45 880.70,290.47 881.13,290.48 881.56,290.54 881.99,290.64 882.42,290.64 882.85,290.42 883.28,290.37 883.71,290.39 884.14,290.84 884.56,291.40 884.99,292.15 885.42,293.01 885.85,293.91 886.28,294.83 886.71,296.03 887.14,297.26 887.57,298.31 888.00,299.16 888.42,299.84 888.85,300.42 889.28,300.73 889.71,300.89 890.14,300.95 890.57,300.88 891.00,300.73 891.43,300.68 891.86,300.75 892.28,300.84 892.71,301.08 893.14,301.48 893.57,302.04 894.00,302.68 894.43,303.55 894.86,304.46 895.29,305.36 895.72,306.19 896.14,306.96 896.57,307.87 897.00,308.58 897.43,309.08 897.86,309.44 898.29,309.76 898.72,309.68 899.15,309.36 899.58,308.82 900.00,308.35 900.43,307.95 900.86,307.47 901.29,306.94 901.72,306.42 902.15,306.06 902.58,305.71 903.01,305.54 903.44,305.38 903.86,305.14 904.29,305.40 904.72,305.55 905.15,305.72 905.58,305.99 906.01,306.54 906.44,307.31 906.87,308.04 907.30,308.86 907.72,309.56 908.15,310.27 908.58,310.83 909.01,311.21 909.44,311.48 909.87,311.38 910.30,311.17 910.73,311.07 911.16,310.80 911.58,310.60 912.01,310.43 912.44,310.11 912.87,309.99 913.30,309.71 913.73,309.54 914.16,309.32 914.59,308.96 915.02,308.44 915.44,308.12 915.87,307.93 916.30,307.67 916.73,307.43 917.16,307.22 917.59,306.89 918.02,306.53 918.45,306.09 918.88,305.54 919.30,305.18 919.73,304.87 920.16,304.51 920.59,304.00 921.02,303.46 921.45,303.00 921.88,302.80 922.31,302.58 922.74,302.39 923.16,302.15 923.59,301.95 924.02,301.55 924.45,300.97 924.88,300.22 925.31,299.21 925.74,298.38 926.17,297.54 926.60,296.60 927.02,295.44 927.45,294.30 927.88,293.09 928.31,291.87 928.74,290.69 929.17,289.39 929.60,288.15 930.03,286.82 930.46,285.62 930.88,284.63 931.31,283.72 931.74,282.73 932.17,282.13 932.60,281.72 933.03,281.40 933.46,281.16 933.89,280.75 934.32,280.49 934.74,280.23 935.17,279.95 935.60,279.49 936.03,278.98 936.46,278.46 936.89,277.87 937.32,277.16 937.75,276.56 938.18,275.73 938.60,275.08 939.03,274.33 939.46,273.56 939.89,273.05 940.32,272.66 940.75,272.48 941.18,272.21 941.61,272.04 942.04,271.94 942.46,271.98 942.89,271.89 943.32,271.87 943.75,272.01 944.18,271.90 944.61,271.61 945.04,271.53 945.47,271.45 945.89,271.27 946.32,271.08 946.75,271.05 947.18,270.63 947.61,270.18 948.04,269.81 948.47,269.48 948.90,268.88 949.33,268.18 949.75,267.73 950.18,267.08 950.61,266.43 951.04,265.73 951.47,265.26 951.90,265.07 952.33,264.76 952.76,264.73 953.19,264.91 953.61,264.96 954.04,264.97 954.47,265.17 954.90,265.05 955.33,265.05 955.76,264.95 956.19,265.06 956.62,265.13 957.05,264.93 957.47,264.79 957.90,264.71 958.33,264.48 958.76,264.20 959.19,264.08 959.62,264.10 960.05,263.98 960.48,263.99 960.91,264.21 961.33,264.46 961.76,264.71 962.19,264.75 962.62,264.86 963.05,264.83 963.48,265.01 963.91,265.20 964.34,265.25 964.77,265.24 965.19,265.10 965.62,265.20 966.05,265.31 966.48,265.36 966.91,265.65 967.34,266.09 967.77,266.64 968.20,267.38 968.63,267.99 969.05,268.23 969.48,268.35 969.91,268.45 970.34,268.44 970.77,268.36 971.20,267.75 971.63,267.10 972.06,266.59 972.49,265.96 972.91,265.68 973.34,265.49 973.77,265.38 974.20,265.21 974.63,265.23 975.06,265.13 975.49,265.17 975.92,265.14 976.35,265.18 976.77,265.39 977.20,265.44 977.63,265.41 978.06,265.60 978.49,266.03 978.92,266.48 979.35,266.71 979.78,266.86 980.21,266.85 980.63,266.50 981.06,266.12 981.49,265.74 981.92,265.40 982.35,265.01 982.78,264.41 983.21,263.87 983.64,263.30 984.07,262.86 984.49,262.35 984.92,262.13 985.35,262.04 985.78,262.07 986.21,262.08 986.64,262.06 987.07,262.32 987.50,262.73 987.93,262.53 988.35,262.34 988.78,262.19 989.21,261.99 989.64,261.43 990.07,260.77 990.50,260.30 990.93,259.76 991.36,259.13 991.79,258.52 992.21,257.93 992.64,257.25 993.07,256.63 993.50,256.43 993.93,256.21 994.36,255.92 994.79,255.61 995.22,255.43 995.65,255.23 996.07,255.04 996.50,254.87 996.93,254.62 997.36,254.37 997.79,254.34 998.22,254.23 998.65,254.20 999.08,254.10 999.51,254.00 999.93,254.10 1000.36,254.15 1000.79,254.23 1001.22,254.26 1001.65,254.27 1002.08,254.19 1002.51,253.95 1002.94,253.59 1003.37,253.06 1003.79,252.24 1004.22,251.21 1004.65,250.21 1005.08,249.37 1005.51,248.68 1005.94,248.01 1006.37,247.34 1006.80,246.73 1007.23,246.32 1007.65,245.77 1008.08,245.38 1008.51,244.61 1008.94,244.08 1009.37,243.50 1009.80,242.60 1010.23,241.80 1010.66,240.92 1011.09,240.00 1011.51,239.19 1011.94,238.77 1012.37,238.44 1012.80,238.11 1013.23,238.01 1013.66,238.05 1014.09,238.61 1014.52,239.13 1014.95,239.35 1015.37,239.49 1015.80,239.61 1016.23,239.77 1016.66,239.56 1017.09,239.26 1017.52,239.14 1017.95,238.97 1018.38,238.68 1018.81,238.52 1019.23,238.23 1019.66,238.00 1020.09,237.49 1020.52,236.96 1020.95,236.29 1021.38,235.41 1021.81,234.46 1022.24,233.85 1022.67,233.27 1023.09,232.76 1023.52,232.48 1023.95,232.17 1024.38,231.81 1024.81,231.23 1025.24,230.60 1025.67,229.93 1026.10,229.18 1026.53,228.42 1026.95,227.72 1027.38,227.13 1027.81,226.36 1028.24,225.62 1028.67,224.77 1029.10,223.99 1029.53,223.17 1029.96,222.30 1030.39,221.59 1030.81,221.25 1031.24,220.88 1031.67,220.50 1032.10,220.08 1032.53,219.86 1032.96,220.01 1033.39,220.11 1033.82,220.15 1034.25,220.22 1034.67,220.57 1035.10,220.77 1035.53,220.83 1035.96,220.96 1036.39,220.92 1036.82,220.96 1037.25,220.94 1037.68,220.99 1038.11,221.18 1038.53,221.16 1038.96,220.91 1039.39,220.68 1039.82,220.38 1040.25,219.79 1040.68,219.13 1041.11,218.60 1041.54,217.77 1041.96,217.23 1042.39,216.77 1042.82,216.31 1043.25,215.70 1043.68,214.88 1044.11,214.09 1044.54,213.40 1044.97,212.79 1045.40,212.25 1045.82,212.09 1046.25,212.06 1046.68,212.05 1047.11,212.05 1047.54,211.95 1047.97,211.77 1048.40,211.45 1048.83,211.24 1049.26,210.93 1049.68,210.54 1050.11,209.84 1050.54,209.14 1050.97,208.42 1051.40,207.78 1051.83,207.07 1052.26,206.54 1052.69,206.20 1053.12,205.81 1053.54,205.54 1053.97,205.32 1054.40,205.07 1054.83,204.52 1055.26,204.16 1055.69,203.84 1056.12,203.33 1056.55,202.46 1056.98,201.42 1057.40,200.35 1057.83,199.42 1058.26,198.59 1058.69,197.80 1059.12,197.00 1059.55,196.59 1059.98,196.14 1060.41,195.64 1060.84,195.28 1061.26,194.68 1061.69,194.03 1062.12,193.47 1062.55,192.96 1062.98,192.89 1063.41,192.73 1063.84,192.64 1064.27,192.46 1064.70,192.03 1065.12,191.49 1065.55,191.17 1065.98,190.83 1066.41,190.61 1066.84,190.51 1067.27,190.30 1067.70,190.07 1068.13,189.89 1068.56,189.81 1068.98,189.78 1069.41,189.76 1069.84,189.68 1070.27,189.50 1070.70,189.42 1071.13,189.22 1071.56,188.96 1071.99,188.51 1072.42,188.06 1072.84,187.42 1073.27,186.65 1073.70,186.18 1074.13,185.94 1074.56,185.79 1074.99,185.54 1075.42,185.15 1075.85,184.72 1076.28,184.40 1076.70,184.26 1077.13,184.04 1077.56,183.64 1077.99,182.83 1078.42,182.16 1078.85,181.53 1079.28,180.83 1079.71,180.08 1080.14,179.35 1080.56,178.62 1080.99,177.74 1081.42,177.06 1081.85,176.51 1082.28,175.78 1082.71,175.34 1083.14,174.95 1083.57,174.62 1084.00,174.08 1084.42,173.75 1084.85,173.31 1085.28,172.78 1085.71,172.31 1086.14,171.91 1086.57,171.67 1087.00,171.60 1087.43,171.49 1087.86,171.52 1088.28,171.44 1088.71,170.95 1089.14,170.27 1089.57,169.72 1090.00,169.49" />
<text x="600.0" y="642" text-anchor="middle" font-family="Arial" font-size="14">Timesteps</text>
<g transform="translate(42,355.0) rotate(-90)"><text text-anchor="middle" font-family="Arial" font-size="14">episode_reward_mean</text></g>
<rect x="770" y="138" width="295" height="70" fill="#fafafa" stroke="#dddddd" />
<line x1="782" y1="160" x2="822" y2="160" stroke="#9bbbe6" stroke-width="1.5" />
<text x="830" y="164" font-family="Arial" font-size="12">Raw episode_reward_mean</text>
<line x1="782" y1="186" x2="822" y2="186" stroke="#2158a8" stroke-width="3" />
<text x="830" y="190" font-family="Arial" font-size="12">Rolling mean (window=100)</text>
</svg>